<?xml version="1.0" encoding="UTF-8"?>
<svg id="_레이어_1" xmlns="http://www.w3.org/2000/svg" version="1.1" viewBox="0 0 907.1 127.6">
  <!-- Generator: Adobe Illustrator 29.2.0, SVG Export Plug-In . SVG Version: 2.1.0 Build 108)  -->
  <defs>
    <style>
      .st0 {
        fill: #e5e5e5;
      }

      .st0, .st1 {
        opacity: .2;
      }

      .st0, .st2, .st3 {
        isolation: isolate;
      }

      .st4, .st2 {
        fill: #fff;
      }

      .st2, .st5 {
        opacity: .3;
      }

      .st6 {
        fill: #ddd;
      }

      .st3 {
        opacity: 0;
      }

      .st3, .st7 {
        fill: #d1d1d1;
      }

      .st3, .st8 {
        stroke: #9fa0a0;
        stroke-miterlimit: 10;
      }

      .st9 {
        opacity: .1;
      }

      .st10 {
        fill: #9fa0a0;
      }

      .st8 {
        fill: none;
      }
    </style>
  </defs>
  <rect class="st3" x="3.3" y="4" width="900" height="120"/>
  <rect class="st8" x="575.7" y="22.7" width="307.7" height="81.8"/>
  <rect class="st0" x="22.5" y="24.5" width="165.9" height="80"/>
  <g class="st9">
    <g>
      <rect class="st10" x="286.4" y="22.7" width="7.2" height="7.2"/>
      <rect class="st10" x="298.8" y="22.7" width="7.2" height="7.2"/>
      <rect class="st10" x="311.2" y="22.7" width="7.2" height="7.2"/>
      <rect class="st10" x="323.6" y="22.7" width="7.2" height="7.2"/>
      <rect class="st10" x="335.9" y="22.7" width="7.2" height="7.2"/>
      <rect class="st10" x="348.3" y="22.7" width="7.2" height="7.2"/>
      <rect class="st10" x="360.7" y="22.7" width="7.2" height="7.2"/>
      <rect class="st10" x="373.1" y="22.7" width="7.2" height="7.2"/>
      <rect class="st10" x="385.5" y="22.7" width="7.2" height="7.2"/>
      <rect class="st10" x="397.8" y="22.7" width="7.2" height="7.2"/>
      <rect class="st10" x="410.2" y="22.7" width="7.2" height="7.2"/>
      <rect class="st10" x="422.6" y="22.7" width="7.2" height="7.2"/>
      <rect class="st10" x="435" y="22.7" width="7.2" height="7.2"/>
      <rect class="st10" x="447.3" y="22.7" width="7.2" height="7.2"/>
      <rect class="st10" x="459.7" y="22.7" width="7.2" height="7.2"/>
      <rect class="st10" x="472.1" y="22.7" width="7.2" height="7.2"/>
      <rect class="st10" x="484.5" y="22.7" width="7.2" height="7.2"/>
      <rect class="st10" x="496.9" y="22.7" width="7.2" height="7.2"/>
      <rect class="st10" x="509.2" y="22.7" width="7.2" height="7.2"/>
      <rect class="st10" x="521.6" y="22.7" width="7.2" height="7.2"/>
      <rect class="st10" x="534" y="22.7" width="7.2" height="7.2"/>
      <rect class="st10" x="546.4" y="22.7" width="7.2" height="7.2"/>
    </g>
    <g>
      <rect class="st10" x="286.4" y="35.3" width="7.2" height="7.2"/>
      <rect class="st10" x="298.8" y="35.3" width="7.2" height="7.2"/>
      <rect class="st10" x="311.2" y="35.3" width="7.2" height="7.2"/>
      <rect class="st10" x="323.6" y="35.3" width="7.2" height="7.2"/>
      <rect class="st10" x="335.9" y="35.3" width="7.2" height="7.2"/>
      <rect class="st10" x="348.3" y="35.3" width="7.2" height="7.2"/>
      <rect class="st10" x="360.7" y="35.3" width="7.2" height="7.2"/>
      <rect class="st10" x="373.1" y="35.3" width="7.2" height="7.2"/>
      <rect class="st10" x="385.5" y="35.3" width="7.2" height="7.2"/>
      <rect class="st10" x="397.8" y="35.3" width="7.2" height="7.2"/>
      <rect class="st10" x="410.2" y="35.3" width="7.2" height="7.2"/>
      <rect class="st10" x="422.6" y="35.3" width="7.2" height="7.2"/>
      <rect class="st10" x="435" y="35.3" width="7.2" height="7.2"/>
      <rect class="st10" x="447.3" y="35.3" width="7.2" height="7.2"/>
      <rect class="st10" x="459.7" y="35.3" width="7.2" height="7.2"/>
      <rect class="st10" x="472.1" y="35.3" width="7.2" height="7.2"/>
      <rect class="st10" x="484.5" y="35.3" width="7.2" height="7.2"/>
      <rect class="st10" x="496.9" y="35.3" width="7.2" height="7.2"/>
      <rect class="st10" x="509.2" y="35.3" width="7.2" height="7.2"/>
      <rect class="st10" x="521.6" y="35.3" width="7.2" height="7.2"/>
      <rect class="st10" x="534" y="35.3" width="7.2" height="7.2"/>
      <rect class="st10" x="546.4" y="35.3" width="7.2" height="7.2"/>
    </g>
    <g>
      <rect class="st10" x="286.4" y="48" width="7.2" height="7.2"/>
      <rect class="st10" x="298.8" y="48" width="7.2" height="7.2"/>
      <rect class="st10" x="311.2" y="48" width="7.2" height="7.2"/>
      <rect class="st10" x="323.6" y="48" width="7.2" height="7.2"/>
      <rect class="st10" x="335.9" y="48" width="7.2" height="7.2"/>
      <rect class="st10" x="348.3" y="48" width="7.2" height="7.2"/>
      <rect class="st10" x="360.7" y="48" width="7.2" height="7.2"/>
      <rect class="st10" x="373.1" y="48" width="7.2" height="7.2"/>
      <rect class="st10" x="385.5" y="48" width="7.2" height="7.2"/>
      <rect class="st10" x="397.8" y="48" width="7.2" height="7.2"/>
      <rect class="st10" x="410.2" y="48" width="7.2" height="7.2"/>
      <rect class="st10" x="422.6" y="48" width="7.2" height="7.2"/>
      <rect class="st10" x="435" y="48" width="7.2" height="7.2"/>
      <rect class="st10" x="447.3" y="48" width="7.2" height="7.2"/>
      <rect class="st10" x="459.7" y="48" width="7.2" height="7.2"/>
      <rect class="st10" x="472.1" y="48" width="7.2" height="7.2"/>
      <rect class="st10" x="484.5" y="48" width="7.2" height="7.2"/>
      <rect class="st10" x="496.9" y="48" width="7.2" height="7.2"/>
      <rect class="st10" x="509.2" y="48" width="7.2" height="7.2"/>
      <rect class="st10" x="521.6" y="48" width="7.2" height="7.2"/>
      <rect class="st10" x="534" y="48" width="7.2" height="7.2"/>
      <rect class="st10" x="546.4" y="48" width="7.2" height="7.2"/>
    </g>
    <g>
      <rect class="st10" x="286.4" y="60.7" width="7.2" height="7.2"/>
      <rect class="st10" x="298.8" y="60.7" width="7.2" height="7.2"/>
      <rect class="st10" x="311.2" y="60.7" width="7.2" height="7.2"/>
      <rect class="st10" x="323.6" y="60.7" width="7.2" height="7.2"/>
      <rect class="st10" x="335.9" y="60.7" width="7.2" height="7.2"/>
      <rect class="st10" x="348.3" y="60.7" width="7.2" height="7.2"/>
      <rect class="st10" x="360.7" y="60.7" width="7.2" height="7.2"/>
      <rect class="st10" x="373.1" y="60.7" width="7.2" height="7.2"/>
      <rect class="st10" x="385.5" y="60.7" width="7.2" height="7.2"/>
      <rect class="st10" x="397.8" y="60.7" width="7.2" height="7.2"/>
      <rect class="st10" x="410.2" y="60.7" width="7.2" height="7.2"/>
      <rect class="st10" x="422.6" y="60.7" width="7.2" height="7.2"/>
      <rect class="st10" x="435" y="60.7" width="7.2" height="7.2"/>
      <rect class="st10" x="447.3" y="60.7" width="7.2" height="7.2"/>
      <rect class="st10" x="459.7" y="60.7" width="7.2" height="7.2"/>
      <rect class="st10" x="472.1" y="60.7" width="7.2" height="7.2"/>
      <rect class="st10" x="484.5" y="60.7" width="7.2" height="7.2"/>
      <rect class="st10" x="496.9" y="60.7" width="7.2" height="7.2"/>
      <rect class="st10" x="509.2" y="60.7" width="7.2" height="7.2"/>
      <rect class="st10" x="521.6" y="60.7" width="7.2" height="7.2"/>
      <rect class="st10" x="534" y="60.7" width="7.2" height="7.2"/>
      <rect class="st10" x="546.4" y="60.7" width="7.2" height="7.2"/>
    </g>
  </g>
  <line class="st8" x1="729.5" y1="22.7" x2="729.5" y2="104.5"/>
  <g class="st5">
    <rect class="st7" x="197.3" y="95.6" width="28.6" height="6"/>
    <rect class="st8" x="197.3" y="92.7" width="28.6" height="11.8"/>
  </g>
  <g class="st5">
    <rect class="st7" x="197.3" y="74.3" width="28.6" height="6"/>
    <rect class="st8" x="197.3" y="71.4" width="28.6" height="11.8"/>
  </g>
  <rect class="st2" x="34.8" y="52.4" width="88.1" height="24.2"/>
  <g class="st5">
    <circle class="st4" cx="156.6" cy="64.5" r="4.8"/>
    <circle class="st4" cx="173.4" cy="64.5" r="4.8"/>
    <circle class="st4" cx="139.8" cy="64.5" r="4.8"/>
    <circle class="st4" cx="156.6" cy="47.7" r="4.8"/>
    <circle class="st4" cx="156.6" cy="81.3" r="4.8"/>
  </g>
  <rect class="st8" x="3.3" y="3.6" width="900" height="120"/>
  <g class="st1">
    <rect class="st6" x="583.3" y="66.3" width="138.6" height="28.2"/>
    <rect class="st6" x="737.4" y="66.3" width="138.6" height="28.2"/>
    <rect class="st6" x="286.5" y="76.9" width="267.1" height="27.4"/>
  </g>
  <g>
    <rect class="st8" x="583.2" y="66.5" width="138.6" height="28.2"/>
    <rect class="st8" x="737.3" y="66.5" width="138.6" height="28.2"/>
    <rect class="st8" x="286.4" y="77.1" width="267.1" height="27.4"/>
  </g>
</svg>