<?xml version="1.0" encoding="UTF-8"?>
<svg id="_레이어_2" data-name="레이어_2" xmlns="http://www.w3.org/2000/svg" version="1.1" viewBox="0 0 907.1 206.9">
  <!-- Generator: Adobe Illustrator 29.2.0, SVG Export Plug-In . SVG Version: 2.1.0 Build 108)  -->
  <defs>
    <style>
      .st0 {
        fill: #e5e5e5;
      }

      .st0, .st1 {
        opacity: .2;
      }

      .st0, .st1, .st2 {
        isolation: isolate;
      }

      .st3 {
        stroke: #383838;
      }

      .st3, .st1, .st4 {
        fill: none;
        stroke-miterlimit: 10;
      }

      .st5, .st2 {
        fill: #fff;
      }

      .st1 {
        stroke: #e5e5e5;
      }

      .st2, .st6 {
        opacity: .3;
      }

      .st7 {
        opacity: .2;
      }

      .st8 {
        fill: #ddd;
      }

      .st9 {
        fill: #d1d1d1;
      }

      .st4 {
        stroke: #9fa0a0;
      }
    </style>
  </defs>
  <rect class="st4" x="3.5" y="4.6" width="900" height="197.8"/>
  <rect class="st0" x="28.7" y="101.6" width="109.1" height="36.4"/>
  <rect class="st2" x="34.6" y="106.7" width="97.3" height="26.2"/>
  <g class="st6">
    <circle class="st5" cx="165.9" cy="120.1" r="4"/>
    <circle class="st5" cx="179.9" cy="120.1" r="4"/>
    <circle class="st5" cx="152" cy="120.1" r="4"/>
    <circle class="st5" cx="165.9" cy="106.1" r="4"/>
    <circle class="st5" cx="165.9" cy="134" r="4"/>
  </g>
  <rect class="st0" x="28.7" y="159.9" width="73.5" height="26.2"/>
  <rect class="st0" x="108.5" y="159.9" width="73.5" height="26.2"/>
  <g>
    <g class="st6">
      <rect class="st9" x="204.4" y="177.4" width="34.3" height="6"/>
      <rect class="st4" x="204.4" y="174.5" width="34.3" height="11.8"/>
    </g>
    <g class="st6">
      <rect class="st9" x="204.4" y="162.3" width="34.3" height="6"/>
      <rect class="st4" x="204.4" y="159.4" width="34.3" height="11.8"/>
    </g>
  </g>
  <g>
    <rect class="st1" x="28.7" y="19.1" width="210" height="27.5"/>
    <g>
      <rect class="st2" x="44.8" y="27.4" width="177.8" height="3.2"/>
      <rect class="st2" x="44.8" y="35.1" width="177.8" height="3.2"/>
    </g>
  </g>
  <g>
    <rect class="st1" x="28.7" y="52.9" width="210" height="27.5"/>
    <g>
      <rect class="st2" x="44.8" y="61.2" width="177.8" height="3.2"/>
      <rect class="st2" x="44.8" y="68.9" width="177.8" height="3.2"/>
    </g>
  </g>
  <g>
    <rect class="st4" x="278.3" y="106.7" width="152.8" height="80"/>
    <rect class="st4" x="278.3" y="19.4" width="152.8" height="80"/>
    <rect class="st4" x="431.1" y="106.7" width="152.8" height="80"/>
    <rect class="st4" x="431.1" y="19.4" width="152.8" height="80"/>
    <rect class="st4" x="583.9" y="106.7" width="152.8" height="80"/>
    <rect class="st4" x="583.9" y="19.4" width="152.8" height="80"/>
    <rect class="st4" x="736.7" y="106.7" width="152.8" height="80"/>
    <rect class="st4" x="736.7" y="19.4" width="152.8" height="80"/>
  </g>
  <g class="st7">
    <rect class="st8" x="285.4" y="151.2" width="138.6" height="28.2"/>
    <rect class="st8" x="285.4" y="63.9" width="138.6" height="28.2"/>
    <rect class="st8" x="438.2" y="151.2" width="138.6" height="28.2"/>
    <rect class="st8" x="438.2" y="63.9" width="138.6" height="28.2"/>
    <rect class="st8" x="591" y="151.2" width="138.6" height="28.2"/>
    <rect class="st8" x="591" y="63.9" width="138.6" height="28.2"/>
    <rect class="st8" x="743.8" y="151.2" width="138.6" height="28.2"/>
    <rect class="st8" x="743.8" y="63.9" width="138.6" height="28.2"/>
  </g>
  <g>
    <rect class="st3" x="285.4" y="150.9" width="138.6" height="28.2"/>
    <rect class="st3" x="285.4" y="63.6" width="138.6" height="28.2"/>
    <rect class="st3" x="438.2" y="150.9" width="138.6" height="28.2"/>
    <rect class="st3" x="438.2" y="63.6" width="138.6" height="28.2"/>
    <rect class="st3" x="591" y="150.9" width="138.6" height="28.2"/>
    <rect class="st3" x="591" y="63.6" width="138.6" height="28.2"/>
    <rect class="st3" x="743.8" y="150.9" width="138.6" height="28.2"/>
    <rect class="st3" x="743.8" y="63.6" width="138.6" height="28.2"/>
  </g>
</svg>