<?xml version="1.0" encoding="UTF-8"?>
<svg id="_레이어_2" data-name="레이어 2" xmlns="http://www.w3.org/2000/svg" viewBox="0 0 95.88 91.39">
  <defs>
    <style>
      .cls-1 {
        fill: none;
        stroke: #fff;
        stroke-linecap: round;
        stroke-linejoin: round;
        stroke-width: 2px;
      }
    </style>
  </defs>
  <g id="_迹_2" data-name="卵迹_2">
    <g>
      <rect class="cls-1" x="1" y="1" width="31.29" height="12.97" rx="6.48" ry="6.48"/>
      <path class="cls-1" d="M18.21,33.07h-4.45c-1.55,0-2.81-1.26-2.81-2.81v-7.35c0-1.55,1.26-2.81,2.81-2.81h5.12"/>
      <path class="cls-1" d="M17.93,39.21H3.81c-1.55,0-2.81,1.26-2.81,2.81v7.35c0,1.55,1.26,2.81,2.81,2.81h14.4"/>
      <path class="cls-1" d="M18.88,58.31h-7.11c-1.55,0-2.81,1.26-2.81,2.81v7.35c0,1.55,1.26,2.81,2.81,2.81h12.61"/>
      <path class="cls-1" d="M32.29,80.23v7.35c0,1.55-1.26,2.81-2.81,2.81H3.81c-1.55,0-2.81-1.26-2.81-2.81v-7.35c0-1.55,1.26-2.81,2.81-2.81h25.67"/>
      <rect class="cls-1" x="63.59" y="1" width="31.29" height="12.97" rx="6.48" ry="6.48" transform="translate(158.47 14.97) rotate(-180)"/>
      <path class="cls-1" d="M57.97,13.97h2.47c1.73,0,3.14-1.4,3.14-3.14v-6.69c0-1.73-1.41-3.14-3.14-3.14h-12.5s-12.5,0-12.5,0c-1.73,0-3.14,1.4-3.14,3.14v6.69c0,1.74,1.41,3.14,3.14,3.14h2.47"/>
      <path class="cls-1" d="M77.01,20.1h5.12c1.55,0,2.81,1.26,2.81,2.81v7.35c0,1.55-1.26,2.81-2.81,2.81h-4.45"/>
      <path class="cls-1" d="M77.67,52.18h14.4c1.55,0,2.81-1.26,2.81-2.81v-7.35c0-1.55-1.26-2.81-2.81-2.81h-14.12"/>
      <path class="cls-1" d="M71.5,71.28h12.61c1.55,0,2.81-1.26,2.81-2.81v-7.35c0-1.55-1.26-2.81-2.81-2.81h-7.11"/>
      <path class="cls-1" d="M63.59,80.23v7.35c0,1.55,1.26,2.81,2.81,2.81h25.67c1.55,0,2.81-1.26,2.81-2.81v-7.35c0-1.55-1.26-2.81-2.81-2.81h-25.67"/>
      <path class="cls-1" d="M63.59,80.23v7.35c0,1.55-1.26,2.81-2.81,2.81h-12.84s-12.84,0-12.84,0c-1.55,0-2.81-1.26-2.81-2.81v-7.35"/>
      <path class="cls-1" d="M21.68,47.39v-25.25c9.61,0,18.9-3.4,26.24-9.61l.02-.02.02.02c3.67,3.1,7.82,5.51,12.27,7.13,4.44,1.63,9.17,2.48,13.97,2.48v25.25c0,16.31-10.7,30.65-26.26,35.32-15.55-4.67-26.26-19.01-26.26-35.32Z"/>
      <g>
        <circle class="cls-1" cx="47.94" cy="47.6" r="15.87" transform="translate(-6.73 87.3) rotate(-80.78)"/>
        <path class="cls-1" d="M39.6,47.03s5.47,7.39,5.47,7.04,11.2-12.95,11.2-12.95"/>
      </g>
    </g>
  </g>
</svg>