<?xml version="1.0" encoding="UTF-8"?>
<svg id="_레이어_2" data-name="레이어 2" xmlns="http://www.w3.org/2000/svg" viewBox="0 0 482 482">
  <defs>
    <style>
      .cls-1 {
        fill: #fff;
        fill-rule: evenodd;
      }
    </style>
  </defs>
  <g id="Layer_1" data-name="Layer 1">
    <path class="cls-1" d="M241,54.3c14.27,0,25.88,11.61,25.88,25.88s-11.61,25.88-25.88,25.88-25.88-11.61-25.88-25.88,11.61-25.88,25.88-25.88h0ZM241,118.05c20.89,0,37.88-16.99,37.88-37.88s-16.99-37.88-37.88-37.88-37.88,16.99-37.88,37.88,16.99,37.88,37.88,37.88h0ZM365.86,446.83v-11.29h104.08v11.36s-104.08-.07-104.08-.07h0ZM429.6,470h-23.35c1.42-3.58,2.18-7.34,2.18-11.01v-.09h18.99v.09c0,3.67.76,7.43,2.18,11.01h0ZM365.92,365.86l104.08.07-.05,57.61h-104.08l.04-57.68h0ZM293.07,365.93l-.04,57.61h-104.08l.04-57.68h.01l104.07.07h0ZM188.93,446.83v-11.29h104.08v11.36s-104.08-.07-104.08-.07h0ZM252.67,470h-23.35c1.42-3.58,2.18-7.34,2.18-11.01v-.09h18.99v.09c0,3.67.76,7.43,2.18,11.01h0ZM116.15,365.93l-.05,57.61H12.02l.05-57.68h0l104.08.07h0ZM12,446.83v-11.29h104.08v11.36s-104.08-.07-104.08-.07h0ZM75.75,470h-23.35c1.42-3.58,2.18-7.34,2.18-11.01v-.09h18.99v.09c0,3.67.76,7.43,2.18,11.01h0ZM101.69,80.18c23.76-28.41,53.62-48.84,86.14-59.56-16.38,14.64-26.72,35.91-26.72,59.56s10.34,44.92,26.72,59.56c-32.51-10.73-62.38-31.16-86.14-59.56h0ZM380.31,80.18c-23.76,28.41-53.62,48.83-86.14,59.56,16.38-14.64,26.72-35.91,26.72-59.56s-10.34-44.92-26.72-59.56c32.52,10.72,62.38,31.15,86.14,59.56h0ZM241,12.29c-37.43,0-67.89,30.45-67.89,67.89s30.45,67.89,67.89,67.89,67.88-30.46,67.88-67.89S278.43,12.29,241,12.29h0ZM469.93,353.86h-46v-92.21c0-3.32-2.69-6-6-6h-170.93v-95.4c27.31-.88,53.68-7.78,78.48-20.56,25.64-13.21,48.27-31.97,67.26-55.77,1.75-2.19,1.75-5.3,0-7.48-19-23.8-41.62-42.56-67.26-55.77C298.87,6.95,270.44,0,241,0s-57.87,6.95-84.48,20.66c-25.63,13.21-48.27,31.97-67.27,55.77-1.75,2.19-1.75,5.3,0,7.48,19,23.8,41.63,42.56,67.27,55.77,24.8,12.78,51.17,19.68,78.48,20.56v95.4H64.07c-3.31,0-6,2.69-6,6v92.21H12.07c-6.65,0-12.07,5.41-12.07,12.07v80.9c0,6.66,5.41,12.07,12.07,12.07h30.51v.09c0,3.64-1.38,7.6-3.73,11.01h-5.85c-3.32,0-6,2.69-6,6s2.69,6,6,6h62.15c3.31,0,6-2.69,6-6s-2.69-6-6-6h-5.85c-2.36-3.41-3.74-7.37-3.74-11.01v-.09h30.51c6.65,0,12.07-5.41,12.07-12.07v-80.9c0-6.66-5.42-12.07-12.07-12.07h-46v-86.22h164.93v86.22h-46c-6.66,0-12.07,5.41-12.07,12.07v80.9c0,6.66,5.41,12.07,12.07,12.07h30.51v.09c0,3.64-1.38,7.6-3.73,11.01h-5.85c-3.32,0-6,2.69-6,6s2.69,6,6,6h62.15c3.31,0,6-2.69,6-6s-2.69-6-6-6h-5.85c-2.36-3.41-3.74-7.37-3.74-11.01v-.09h30.51c6.66,0,12.07-5.41,12.07-12.07v-80.9c0-6.66-5.41-12.07-12.07-12.07h-46v-86.22h164.93v86.22h-46c-6.66,0-12.07,5.41-12.07,12.07v80.9c0,6.66,5.41,12.07,12.07,12.07h30.51v.09c0,3.64-1.38,7.6-3.73,11.01h-5.85c-3.32,0-6,2.69-6,6s2.69,6,6,6h62.15c3.32,0,6-2.69,6-6s-2.68-6-6-6h-5.84c-2.36-3.41-3.74-7.37-3.74-11.01v-.09h30.51c6.66,0,12.07-5.41,12.07-12.07v-80.9c0-6.66-5.41-12.07-12.07-12.07Z"/>
  </g>
</svg>