<?xml version="1.0" encoding="UTF-8"?>
<svg id="_레이어_2" data-name="레이어 2" xmlns="http://www.w3.org/2000/svg" viewBox="0 0 290.7 290.7">
  <defs>
    <style>
      .cls-1 {
        fill: none;
        stroke: #fff;
        stroke-linecap: round;
        stroke-linejoin: round;
        stroke-width: 5.5px;
      }

      .cls-2 {
        opacity: .2;
      }
    </style>
  </defs>
  <g id="_迹_2" data-name="卵迹_2">
    <circle class="cls-2" cx="145.35" cy="145.35" r="145.35"/>
    <g>
      <g>
        <g>
          <path class="cls-1" d="M58.26,178.61v-99.14c0-5.49,4.46-9.95,9.96-9.95h154.27c5.5,0,9.96,4.46,9.96,9.95v99.14"/>
          <path class="cls-1" d="M202.79,178.61h37.94c1.93,0,3.5,1.57,3.5,3.5v3.04c0,5.27-5.51,13.8-9.28,16.9"/>
          <path class="cls-1" d="M164.02,202.05H63.37c-9.33,0-16.9-7.57-16.9-16.9v-3.04c0-1.93,1.57-3.5,3.5-3.5h128.39"/>
          <polyline class="cls-1" points="71.23 177.67 71.23 85.46 219.46 85.46 219.46 178.48"/>
        </g>
        <g>
          <path class="cls-1" d="M201.55,181.76v-7.81l-6.78-7.7,6.78-8.61-6.78-8.1,6.78-7.32-5.55-7.12,5.55-7.12v-7.17l-9.65-14.71c-.55-.84-1.76-.88-2.37-.08l-11.18,14.79v60.94c0,2.21-1.17,4.23-3.02,5.42-8.01,5.13-13.15,14.36-12.45,24.74.93,13.81,12.39,24.83,26.23,25.25,15.37.47,27.98-11.86,27.98-27.12,0-9.67-5.06-18.15-12.67-22.96-1.81-1.14-2.87-3.18-2.87-5.32Z"/>
          <circle class="cls-1" cx="189.96" cy="219.4" r="8.07" transform="translate(-67.22 353.87) rotate(-76.72)"/>
        </g>
      </g>
      <line class="cls-1" x1="215.9" y1="202.05" x2="234.94" y2="202.05"/>
    </g>
  </g>
</svg>