<?xml version="1.0" encoding="UTF-8"?>
<svg id="_레이어_2" data-name="레이어 2" xmlns="http://www.w3.org/2000/svg" viewBox="0 0 290.7 290.7">
  <defs>
    <style>
      .cls-1 {
        fill: #fff;
        fill-rule: evenodd;
      }

      .cls-2 {
        opacity: .2;
      }
    </style>
  </defs>
  <g id="_迹_2" data-name="卵迹_2">
    <circle class="cls-2" cx="145.35" cy="145.35" r="145.35"/>
    <path class="cls-1" d="M145.35,68c5.22,0,9.46,4.24,9.46,9.46s-4.24,9.46-9.46,9.46-9.46-4.25-9.46-9.46,4.25-9.46,9.46-9.46h0ZM145.35,91.31c7.64,0,13.85-6.21,13.85-13.85s-6.21-13.85-13.85-13.85-13.85,6.21-13.85,13.85,6.21,13.85,13.85,13.85h0ZM191,211.53v-4.13h38.06v4.15s-38.06-.03-38.06-.03h0ZM214.31,220h-8.54c.52-1.31.8-2.68.8-4.03v-.03h6.94v.03c0,1.34.28,2.72.8,4.03h0ZM191.03,181.93l38.05.03-.02,21.06h-38.06l.02-21.09h0ZM164.39,181.95l-.02,21.06h-38.06v-21.09h.02l38.05.03h0ZM126.31,211.53v-4.13h38.06v4.15s-38.06-.03-38.06-.03h0ZM149.62,220h-8.54c.52-1.31.8-2.68.8-4.03v-.03h6.94v.03c0,1.34.28,2.72.8,4.03h0ZM99.7,181.95l-.02,21.06h-38.06l.02-21.09h0l38.06.03h0ZM61.62,211.53v-4.13h38.06v4.15s-38.06-.03-38.06-.03h0ZM84.92,220h-8.54c.52-1.31.8-2.68.8-4.03v-.03h6.95v.03c0,1.34.28,2.72.8,4.03h0ZM94.41,77.47c8.69-10.39,19.61-17.86,31.5-21.78-5.99,5.35-9.77,13.13-9.77,21.78s3.78,16.42,9.77,21.78c-11.89-3.92-22.81-11.39-31.5-21.78h0ZM196.28,77.47c-8.69,10.39-19.61,17.86-31.5,21.78,5.99-5.35,9.77-13.13,9.77-21.78s-3.78-16.43-9.77-21.78c11.89,3.92,22.81,11.39,31.5,21.78h0ZM145.35,52.64c-13.69,0-24.82,11.13-24.82,24.82s11.13,24.82,24.82,24.82,24.82-11.14,24.82-24.82-11.13-24.82-24.82-24.82h0ZM229.05,177.54h-16.82v-33.72c0-1.21-.98-2.19-2.19-2.19h-62.5v-34.88c9.99-.32,19.63-2.85,28.7-7.52,9.37-4.83,17.65-11.69,24.59-20.39.64-.8.64-1.94,0-2.74-6.95-8.7-15.22-15.56-24.59-20.39-9.73-5.01-20.12-7.56-30.89-7.56s-21.16,2.54-30.89,7.56c-9.37,4.83-17.65,11.69-24.6,20.39-.64.8-.64,1.94,0,2.74,6.95,8.7,15.22,15.56,24.6,20.39,9.07,4.67,18.71,7.2,28.7,7.52v34.88h-62.5c-1.21,0-2.19.98-2.19,2.19v33.72h-16.82c-2.43,0-4.41,1.98-4.41,4.41v29.58c0,2.44,1.98,4.41,4.41,4.41h11.16v.03c0,1.33-.5,2.78-1.36,4.03h-2.14c-1.21,0-2.19.98-2.19,2.19s.98,2.19,2.19,2.19h22.73c1.21,0,2.19-.98,2.19-2.19s-.98-2.19-2.19-2.19h-2.14c-.86-1.25-1.37-2.69-1.37-4.03v-.03h11.16c2.43,0,4.41-1.98,4.41-4.41v-29.58c0-2.43-1.98-4.41-4.41-4.41h-16.82v-31.52h60.3v31.52h-16.82c-2.43,0-4.41,1.98-4.41,4.41v29.58c0,2.44,1.98,4.41,4.41,4.41h11.15v.03c0,1.33-.5,2.78-1.36,4.03h-2.14c-1.21,0-2.19.98-2.19,2.19s.98,2.19,2.19,2.19h22.73c1.21,0,2.19-.98,2.19-2.19s-.98-2.19-2.19-2.19h-2.14c-.86-1.25-1.37-2.69-1.37-4.03v-.03h11.16c2.43,0,4.41-1.98,4.41-4.41v-29.58c0-2.43-1.98-4.41-4.41-4.41h-16.82v-31.52h60.31v31.52h-16.82c-2.43,0-4.41,1.98-4.41,4.41v29.58c0,2.44,1.98,4.41,4.41,4.41h11.15v.03c0,1.33-.5,2.78-1.36,4.03h-2.14c-1.21,0-2.19.98-2.19,2.19s.98,2.19,2.19,2.19h22.72c1.21,0,2.19-.98,2.19-2.19s-.98-2.19-2.19-2.19h-2.14c-.86-1.25-1.37-2.69-1.37-4.03v-.03h11.15c2.44,0,4.41-1.98,4.41-4.41v-29.58c0-2.43-1.98-4.41-4.41-4.41Z"/>
  </g>
</svg>