<?xml version="1.0" encoding="UTF-8"?>
<svg id="_레이어_2" data-name="레이어 2" xmlns="http://www.w3.org/2000/svg" viewBox="0 0 109.2 112.89">
  <defs>
    <style>
      .cls-1 {
        fill: none;
        stroke: #fff;
        stroke-linecap: round;
        stroke-linejoin: round;
        stroke-width: 2px;
      }
    </style>
  </defs>
  <g id="_迹_2" data-name="卵迹_2">
    <g>
      <g>
        <path class="cls-1" d="M50,82.68c-11.59-7.46-18.82-20.13-19.36-33.9l-.14-3.64,3.46-1.12c3.87-1.25,6.62-4.68,7.02-8.73l.48-4.92h26.44l.48,4.92c.39,4.05,3.15,7.47,7.02,8.73l3.46,1.12-.14,3.64c-.54,13.77-7.77,26.44-19.36,33.9l-4.68,3.01-4.68-3.01Z"/>
        <g>
          <circle class="cls-1" cx="54.68" cy="56.88" r="14.33"/>
          <path class="cls-1" d="M47.15,56.36s4.94,6.68,4.94,6.36,10.11-11.69,10.11-11.69"/>
        </g>
      </g>
      <polyline class="cls-1" points="68.38 36.27 80.72 36.27 87.78 29.22"/>
      <polyline class="cls-1" points="69.01 74.7 81.15 74.7 88.21 81.76"/>
      <line class="cls-1" x1="97.13" y1="54.91" x2="78.86" y2="54.91"/>
      <circle class="cls-1" cx="91.05" cy="24.54" r="5.53"/>
      <circle class="cls-1" cx="54.68" cy="6.53" r="5.53" transform="translate(1.85 22.06) rotate(-23.19)"/>
      <circle class="cls-1" cx="54.68" cy="106.36" r="5.53" transform="translate(-17.68 11.14) rotate(-10.03)"/>
      <circle class="cls-1" cx="102.66" cy="54.91" r="5.53"/>
      <circle class="cls-1" cx="92.2" cy="85.7" r="5.53" transform="translate(-12.39 155.74) rotate(-76.72)"/>
      <polyline class="cls-1" points="21.42 29.22 28.47 36.27 40.98 36.27"/>
      <polyline class="cls-1" points="20.98 81.76 28.04 74.7 40.84 74.7"/>
      <line class="cls-1" x1="30.5" y1="54.91" x2="12.07" y2="54.91"/>
      <circle class="cls-1" cx="18.15" cy="24.54" r="5.53"/>
      <circle class="cls-1" cx="6.53" cy="54.91" r="5.53"/>
      <circle class="cls-1" cx="17" cy="85.7" r="5.53" transform="translate(-19.24 6.2) rotate(-13.28)"/>
      <line class="cls-1" x1="54.47" y1="30.08" x2="54.47" y2="12.33"/>
      <line class="cls-1" x1="54.68" y1="100.83" x2="54.68" y2="85.69"/>
    </g>
  </g>
</svg>