<?xml version="1.0" encoding="UTF-8"?>
<svg id="_레이어_2" data-name="레이어 2" xmlns="http://www.w3.org/2000/svg" viewBox="0 0 376.08 376.08">
  <defs>
    <style>
      .cls-1 {
        fill: #fff;
      }
    </style>
  </defs>
  <g id="Layer_1" data-name="Layer 1">
    <path class="cls-1" d="M188.04,376.08c-3.33,0-6.04-2.71-6.04-6.04v-50.97l-3.19-1.38c-15.59-6.73-29.84-15.88-42.35-27.19l-8.83-7.98v32.39c0,2.78-1.88,5.19-4.58,5.86l-43.56,10.89-.3,3.79c-1.24,15.58-14.46,27.79-30.1,27.79-16.66,0-30.21-13.55-30.21-30.21s13.55-30.21,30.21-30.21c10.31,0,19.81,5.21,25.42,13.92l2.05,3.19,38.99-9.75v-42.82l-.99-1.38c-1.25-1.74-1.8-2.56-2.07-2.95l-1.71-2.51h-49.6c-3.33,0-6.04-2.71-6.04-6.04s2.71-6.04,6.04-6.04h42.18l-3.52-7.52c-6.3-13.48-10.61-27.79-12.8-42.53l-.66-4.42-26.35-.54-1.25,3.64c-4.2,12.21-15.68,20.41-28.57,20.41-16.66,0-30.21-13.55-30.21-30.21s13.55-30.21,30.21-30.21c13.04,0,24.57,8.33,28.68,20.73l1.17,3.55,25.32.52-.03-5.43c0-.36,0-.44,0-.51,0-.22,0-2.07,0-24.67v-47.81c0-3.33,2.71-6.04,6.04-6.04,6.57,0,13.2-.52,19.7-1.54l4.47-.7v-35.41l-58.33-15.55-2.11,3.07c-5.66,8.22-14.97,13.13-24.89,13.13C13.55,60.41,0,46.86,0,30.21S13.55,0,30.21,0s29.4,12.63,30.17,28.74l.18,3.86,62.58,16.69c2.64.7,4.48,3.11,4.48,5.84v37.22l7.11-2.62c17.25-6.35,32.21-16.01,45.71-29.52l1.55-1.55V24.92c0-3.33,2.71-6.04,6.04-6.04s6.04,2.71,6.04,6.04v33.75l1.55,1.55c13.5,13.5,28.46,23.16,45.71,29.51l7.11,2.62v-37.22c0-2.73,1.84-5.13,4.49-5.84l62.58-16.69.19-3.86c.77-16.12,14.02-28.74,30.17-28.74s30.21,13.55,30.21,30.21-13.55,30.21-30.21,30.21c-9.93,0-19.23-4.91-24.89-13.13l-2.11-3.07-58.33,15.55v35.41l4.47.7c6.5,1.02,13.13,1.54,19.7,1.54,3.33,0,6.04,2.71,6.04,6.04v6.04h42.29c3.33,0,6.04,2.71,6.04,6.04s-2.71,6.04-6.04,6.04h-42.29v35.81c0,17.68,0,18.37,0,18.75l-.05,5.85h25.35l1.21-3.59c4.16-12.3,15.66-20.57,28.62-20.57,16.66,0,30.21,13.55,30.21,30.21s-13.55,30.21-30.21,30.21c-12.96,0-24.46-8.27-28.62-20.57l-1.21-3.59h-26.34l-.68,4.5c-3.67,24.48-12.92,47.16-27.49,67.41l-.99,1.38v42.82l38.99,9.75,2.05-3.19c5.61-8.72,15.11-13.92,25.42-13.92,16.66,0,30.21,13.55,30.21,30.21s-13.55,30.21-30.21,30.21c-15.64,0-28.86-12.21-30.1-27.79l-.3-3.79-43.56-10.89c-2.69-.67-4.58-3.08-4.58-5.86v-32.39l-8.83,7.98c-12.51,11.31-26.76,20.46-42.35,27.19l-3.19,1.38v50.97c0,3.33-2.71,6.04-6.04,6.04ZM327,314.91c-9.99,0-18.12,8.13-18.12,18.12s8.13,18.12,18.12,18.12,18.12-8.13,18.12-18.12-8.13-18.12-18.12-18.12ZM49.09,314.91c-9.99,0-18.12,8.13-18.12,18.12s8.13,18.12,18.12,18.12,18.12-8.13,18.12-18.12-8.13-18.12-18.12-18.12ZM184.46,73.14c-22.49,20.76-51.67,33.52-82.17,35.93l-4.87.38v65.97c0,57.28,35.61,110.41,88.61,132.2l2.01.83,2.01-.83c53-21.8,88.61-74.93,88.61-132.2v-65.97l-4.87-.38c-30.49-2.41-59.67-15.17-82.17-35.93l-3.59-3.31-3.59,3.31ZM345.88,169.92c-9.99,0-18.12,8.13-18.12,18.12s8.13,18.12,18.12,18.12,18.12-8.13,18.12-18.12-8.13-18.12-18.12-18.12ZM30.21,169.16c-9.99,0-18.12,8.13-18.12,18.12s8.13,18.12,18.12,18.12,18.12-8.13,18.12-18.12-8.13-18.12-18.12-18.12ZM345.88,12.08c-9.99,0-18.12,8.13-18.12,18.12s8.13,18.12,18.12,18.12,18.12-8.13,18.12-18.12-8.13-18.12-18.12-18.12ZM30.21,12.08c-9.99,0-18.12,8.13-18.12,18.12s8.13,18.12,18.12,18.12,18.12-8.13,18.12-18.12-8.13-18.12-18.12-18.12Z"/>
    <g>
      <path class="cls-1" d="M167.27,156.13l-13.94,67.74h-18.37l-13.55-67.74h11.06l11.68,57.93.86-4.36c1.66-7.94,2.88-13.86,3.66-17.75,1.4-6.75,2.65-12.95,3.74-18.61l3.43-17.21h11.45Z"/>
      <path class="cls-1" d="M173.19,156.13h21.49c5.09,0,8.9,1.06,11.45,3.19,2.7,2.29,4.05,5.79,4.05,10.51v11.21c0,5.61-1.19,9.6-3.58,11.99-2.39,2.39-6.38,3.58-11.99,3.58h-10.51v27.25h-10.9v-67.74ZM184.09,187.74h8.33c1.92,0,3.45-.49,4.59-1.48,1.35-1.14,2.02-2.88,2.02-5.22v-9.65c0-2.28-.68-3.97-2.02-5.06-1.09-.93-2.52-1.4-4.28-1.4h-8.64v22.81Z"/>
      <path class="cls-1" d="M255.41,156.13v67.74h-15.57l-13-51.46v51.46h-10.9v-67.74h14.72l13.7,51.54v-51.54h11.06Z"/>
    </g>
  </g>
</svg>