<?xml version="1.0" encoding="UTF-8"?>
<svg id="_레이어_2" data-name="레이어 2" xmlns="http://www.w3.org/2000/svg" viewBox="0 0 95.15 95.15">
  <defs>
    <style>
      .cls-1 {
        fill: #fff;
        fill-rule: evenodd;
      }
    </style>
  </defs>
  <g id="_迹_2" data-name="卵迹_2">
    <path class="cls-1" d="M47.58,10.72c2.82,0,5.11,2.29,5.11,5.11s-2.29,5.11-5.11,5.11-5.11-2.29-5.11-5.11,2.29-5.11,5.11-5.11h0ZM47.58,23.3c4.12,0,7.48-3.35,7.48-7.48s-3.35-7.48-7.48-7.48-7.48,3.35-7.48,7.48,3.35,7.48,7.48,7.48h0ZM72.22,88.21v-2.23h20.55v2.24s-20.55-.01-20.55-.01h0ZM84.81,92.78h-4.61c.28-.71.43-1.45.43-2.17v-.02h3.75v.02c0,.72.15,1.47.43,2.17h0ZM72.24,72.22h20.55s0,11.39,0,11.39h-20.55v-11.39h.01ZM57.85,72.24v11.37h-20.56v-11.39h20.56ZM37.3,88.21v-2.23h20.55v2.24s-20.55-.01-20.55-.01h0ZM49.88,92.78h-4.61c.28-.71.43-1.45.43-2.17v-.02h3.75v.02c0,.72.15,1.47.43,2.17h0ZM22.93,72.24v11.37H2.37v-11.39h20.56ZM2.37,88.21v-2.23h20.55v2.24s-20.55-.01-20.55-.01h0ZM14.95,92.78h-4.61c.28-.71.43-1.45.43-2.17v-.02h3.75v.02c0,.72.15,1.47.43,2.17h0ZM20.07,15.83c4.69-5.61,10.59-9.64,17.01-11.76-3.23,2.89-5.27,7.09-5.27,11.76s2.04,8.87,5.27,11.76c-6.42-2.12-12.31-6.15-17.01-11.76h0ZM75.08,15.83c-4.69,5.61-10.59,9.64-17.01,11.76,3.23-2.89,5.27-7.09,5.27-11.76s-2.04-8.87-5.27-11.76c6.42,2.12,12.31,6.15,17.01,11.76h0ZM47.58,2.43c-7.39,0-13.4,6.01-13.4,13.4s6.01,13.4,13.4,13.4,13.4-6.01,13.4-13.4-6.01-13.4-13.4-13.4h0ZM92.77,69.86h-9.08v-18.2c0-.65-.53-1.18-1.18-1.18h-33.74v-18.83c5.39-.17,10.6-1.54,15.49-4.06,5.06-2.61,9.53-6.31,13.28-11.01.35-.43.35-1.05,0-1.48-3.75-4.7-8.22-8.4-13.28-11.01C59,1.37,53.39,0,47.58,0s-11.42,1.37-16.68,4.08c-5.06,2.61-9.53,6.31-13.28,11.01-.34.43-.34,1.05,0,1.48,3.75,4.7,8.22,8.4,13.28,11.01,4.9,2.52,10.1,3.89,15.49,4.06v18.83H12.65c-.65,0-1.18.53-1.18,1.18v18.2H2.38c-1.31,0-2.38,1.07-2.38,2.38v15.97c0,1.31,1.07,2.38,2.38,2.38h6.02v.02c0,.72-.27,1.5-.74,2.17h-1.15c-.65,0-1.18.53-1.18,1.18s.53,1.18,1.18,1.18h12.27c.65,0,1.18-.53,1.18-1.18s-.53-1.18-1.18-1.18h-1.15c-.47-.67-.74-1.45-.74-2.17v-.02h6.02c1.31,0,2.38-1.07,2.38-2.38v-15.97c0-1.31-1.07-2.38-2.38-2.38h-9.08v-17.02h32.56v17.02h-9.08c-1.31,0-2.38,1.07-2.38,2.38v15.97c0,1.31,1.07,2.38,2.38,2.38h6.02v.02c0,.72-.27,1.5-.74,2.17h-1.15c-.65,0-1.18.53-1.18,1.18s.53,1.18,1.18,1.18h12.27c.65,0,1.18-.53,1.18-1.18s-.53-1.18-1.18-1.18h-1.15c-.47-.67-.74-1.45-.74-2.17v-.02h6.02c1.31,0,2.38-1.07,2.38-2.38v-15.97c0-1.31-1.07-2.38-2.38-2.38h-9.08v-17.02h32.56v17.02h-9.08c-1.31,0-2.38,1.07-2.38,2.38v15.97c0,1.31,1.07,2.38,2.38,2.38h6.02v.02c0,.72-.27,1.5-.74,2.17h-1.15c-.65,0-1.18.53-1.18,1.18s.53,1.18,1.18,1.18h12.27c.66,0,1.18-.53,1.18-1.18s-.53-1.18-1.18-1.18h-1.15c-.47-.67-.74-1.45-.74-2.17v-.02h6.02c1.32,0,2.38-1.07,2.38-2.38v-15.97c0-1.31-1.07-2.38-2.38-2.38Z"/>
  </g>
</svg>