<?xml version="1.0" encoding="UTF-8"?>
<svg id="_레이어_2" data-name="레이어 2" xmlns="http://www.w3.org/2000/svg" viewBox="0 0 416.48 482">
  <defs>
    <style>
      .cls-1 {
        fill: #fff;
        fill-rule: evenodd;
      }
    </style>
  </defs>
  <g id="Layer_1" data-name="Layer 1">
    <path class="cls-1" d="M385.22,386.34H31.26c-10.62,0-19.26-8.64-19.26-19.26v-18.88h392.48v18.88c0,10.62-8.64,19.26-19.26,19.26h0ZM255.28,442.88h-94.08l10.68-44.54h72.72l10.68,44.54h0ZM296.38,470H120.1v-15.12h176.28v15.12h0ZM31.26,109.87h48.37v66c0,13.4,3.1,25.06,9.77,36.68,22.59,39.38,63.99,72.88,116.57,94.32.73.3,1.5.45,2.27.45s1.54-.15,2.27-.45c52.58-21.44,93.98-54.94,116.57-94.32,6.67-11.62,9.77-23.28,9.77-36.68v-66h48.37c10.62,0,19.26,8.64,19.26,19.26v207.07H12v-207.07c0-10.62,8.64-19.26,19.26-19.26h0ZM91.63,47.66v128.21c0,11.37,2.52,20.85,8.18,30.71,20.94,36.51,59.39,67.78,108.43,88.25,49.04-20.47,87.49-51.74,108.43-88.25,5.66-9.86,8.18-19.34,8.18-30.71V47.66L208.24,12.27l-116.61,35.39h0ZM385.22,97.87h-48.37v-54.66c0-2.64-1.73-4.97-4.26-5.74L209.98.26c-1.13-.35-2.35-.35-3.48,0l-122.62,37.21c-2.52.77-4.25,3.1-4.25,5.74v54.66H31.26c-17.24,0-31.26,14.02-31.26,31.26v237.95c0,17.23,14.02,31.26,31.26,31.26h128.28l-10.68,44.54h-34.76c-3.32,0-6,2.68-6,6v27.12c0,3.31,2.68,6,6,6h188.28c3.32,0,6-2.69,6-6v-27.12c0-3.32-2.68-6-6-6h-34.76l-10.68-44.54h128.28c17.24,0,31.26-14.03,31.26-31.26v-237.95c0-17.24-14.02-31.26-31.26-31.26h0ZM116.83,66.35v109.52c0,6.91,1.41,12.17,4.85,18.17,16.68,29.09,47.36,55.03,86.56,73.24,39.2-18.21,69.88-44.15,86.56-73.24,3.44-5.99,4.85-11.26,4.85-18.17v-109.52l-91.41-27.74-91.41,27.74h0ZM205.77,279.35c.78.36,1.63.53,2.47.53s1.69-.17,2.47-.53c30.18-13.65,71.07-38.5,94.5-79.34,4.45-7.75,6.44-15.2,6.44-24.14V61.91c0-2.65-1.73-4.98-4.26-5.75l-97.41-29.56c-1.13-.34-2.35-.34-3.48,0l-97.41,29.56c-2.53.77-4.26,3.1-4.26,5.75v113.96c0,8.94,1.99,16.38,6.44,24.14,23.42,40.84,64.32,65.69,94.5,79.34h0ZM196.73,159.37c-2.32,2.37-2.27,6.17.1,8.48,2.37,2.32,6.17,2.27,8.49-.1l2.92-3,2.92,3c1.18,1.2,2.74,1.81,4.3,1.81s3.02-.57,4.19-1.71c2.37-2.31,2.42-6.11.1-8.48l-7.22-7.4c-1.12-1.16-2.67-1.81-4.29-1.81s-3.17.65-4.3,1.81l-7.21,7.4h0ZM232.04,120.66c-3.65,0-6.61,2.96-6.61,6.6s2.96,6.61,6.61,6.61,6.6-2.97,6.6-6.61-2.96-6.6-6.6-6.6h0ZM232.04,145.87c10.25,0,18.6-8.35,18.6-18.61s-8.35-18.6-18.6-18.6-18.61,8.34-18.61,18.6,8.35,18.61,18.61,18.61h0ZM184.44,120.66c-3.64,0-6.6,2.96-6.6,6.6s2.96,6.61,6.6,6.61,6.61-2.97,6.61-6.61-2.96-6.6-6.61-6.6h0ZM184.44,145.87c10.26,0,18.61-8.35,18.61-18.61s-8.35-18.6-18.61-18.6-18.6,8.34-18.6,18.6,8.35,18.61,18.6,18.61h0ZM208.24,91.87c-30.96,0-56.15,17.67-56.15,39.4,0,13.46,10.23,26.29,26.7,33.48,2.19.96,3.6,3.12,3.6,5.5v21.88h9.23v-9.34c0-3.32,2.69-6,6-6s6,2.68,6,6v9.34h9.24v-9.34c0-3.32,2.68-6,6-6s6,2.68,6,6v9.34h9.23v-21.88c0-2.38,1.41-4.54,3.6-5.5,16.47-7.19,26.7-20.02,26.7-33.48,0-21.73-25.19-39.4-56.15-39.4h0ZM170.39,174.06v24.07c0,3.32,2.69,6,6,6h63.7c3.31,0,6-2.68,6-6v-24.07c18.79-9.45,30.3-25.56,30.3-42.79,0-28.34-30.57-51.4-68.15-51.4s-68.15,23.06-68.15,51.4c0,17.23,11.51,33.34,30.3,42.79Z"/>
  </g>
</svg>