<?xml version="1.0" encoding="UTF-8"?>
<svg id="_레이어_2" data-name="레이어 2" xmlns="http://www.w3.org/2000/svg" viewBox="0 0 108.76 106.86">
  <defs>
    <style>
      .cls-1 {
        fill: #fff;
        opacity: 0;
      }

      .cls-2 {
        fill: none;
        stroke: #fff;
        stroke-linecap: round;
        stroke-linejoin: round;
        stroke-width: 2px;
      }
    </style>
  </defs>
  <g id="_迹_2" data-name="卵迹_2">
    <g>
      <g>
        <g>
          <path class="cls-2" d="M7.36,72.07V18.54c0-2.97,2.41-5.37,5.38-5.37h83.29c2.97,0,5.38,2.41,5.38,5.37v53.53"/>
          <path class="cls-2" d="M85.39,72.07h20.48c1.04,0,1.89.85,1.89,1.89v1.64c0,2.84-2.97,7.45-5.01,9.12"/>
          <path class="cls-2" d="M64.46,84.72H10.12c-5.04,0-9.12-4.09-9.12-9.12v-1.64c0-1.04.85-1.89,1.89-1.89h69.32"/>
          <polyline class="cls-2" points="14.37 71.56 14.37 21.78 94.4 21.78 94.4 72"/>
        </g>
        <g>
          <path class="cls-2" d="M84.73,73.77v-4.22l-3.66-4.16,3.66-4.65-3.66-4.37,3.66-3.95-3-3.84,3-3.84v-3.87l-5.21-7.94c-.3-.45-.95-.47-1.28-.04l-6.03,7.98v32.9c0,1.19-.63,2.28-1.63,2.93-4.33,2.77-7.1,7.76-6.72,13.36.5,7.46,6.69,13.4,14.16,13.63,8.3.25,15.11-6.4,15.11-14.64,0-5.22-2.73-9.8-6.84-12.4-.98-.62-1.55-1.72-1.55-2.87Z"/>
          <circle class="cls-2" cx="78.47" cy="94.09" r="4.36" transform="translate(-31.14 148.84) rotate(-76.72)"/>
        </g>
      </g>
      <line class="cls-2" x1="92.47" y1="84.72" x2="102.75" y2="84.72"/>
    </g>
    <rect class="cls-1" x=".95" width="106.86" height="106.86"/>
  </g>
</svg>