<?xml version="1.0" encoding="UTF-8"?>
<svg id="_레이어_2" data-name="레이어 2" xmlns="http://www.w3.org/2000/svg" viewBox="0 0 376.08 376.08">
  <defs>
    <style>
      .cls-1 {
        fill: #fff;
      }
    </style>
  </defs>
  <g id="Layer_1" data-name="Layer 1">
    <g>
      <path class="cls-1" d="M157.08,376.08c-.64,0-1.26-.1-1.87-.3-45.54-14.8-84.43-43.08-112.47-81.77C14.78,255.43,0,209.83,0,162.14V61.17c0-3.33,2.71-6.04,6.04-6.04,53.84,0,104.73-18.58,147.18-53.74,1.08-.89,2.45-1.39,3.85-1.39s2.77.49,3.85,1.39c42.46,35.16,93.36,53.74,147.18,53.74,3.33,0,6.04,2.71,6.04,6.04v100.97c0,10.65-.77,21.43-2.29,32.03l-.62,4.3,4.1,1.44c36.33,12.73,60.73,47.11,60.73,85.55,0,22.48-8.29,44.03-23.34,60.71l-.02.02c-17.22,18.99-41.74,29.88-67.28,29.88h0c-24.25,0-47.05-9.46-64.18-26.65l-3.07-3.08-3.62,2.42c-17.18,11.52-35.9,20.62-55.63,27.03-.61.2-1.23.3-1.87.3ZM285.46,303.59c-22.79,0-44.04,13.19-54.15,33.6l-1.77,3.57,2.94,2.68c14.52,13.26,33.34,20.56,52.97,20.56s38.46-7.3,52.98-20.56l2.94-2.68-1.77-3.57c-10.11-20.41-31.36-33.6-54.15-33.6ZM153.83,16.44c-39.46,30.76-86.74,48.23-136.7,50.52l-5.04.23v94.95c0,90.69,57.58,171.45,143.27,200.96l1.72.59,1.72-.59c16.78-5.78,32.8-13.66,47.6-23.41l4.26-2.81-2.65-4.36c-3.47-5.7-6.31-11.79-8.43-18.11l-2.1-6.23-5.64,3.39c-10.32,6.21-21.37,11.29-32.85,15.12-.62.21-1.26.31-1.91.31s-1.29-.1-1.91-.31c-67.51-22.52-112.88-85.45-112.88-156.61v-72.66c0-3.33,2.71-6.04,6.04-6.04,37.49,0,73.68-13.6,101.91-38.29l2.86-2.5c1.1-.97,2.52-1.5,3.98-1.5s2.88.53,3.98,1.5l2.86,2.51c28.22,24.69,64.41,38.29,101.9,38.29,3.33,0,6.04,2.71,6.04,6.04,0,16.47.03,29.49.05,39.94.07,35.73.08,41.22-1.19,52.04l-.77,6.52,6.54-.65c2.98-.29,6-.44,8.97-.44s5.96.15,8.93.44l5.07.5.68-5.05c1.28-9.5,1.93-19.12,1.93-28.59v-94.95l-5.04-.23c-24.68-1.15-48.99-6.08-72.25-14.68-23.27-8.6-44.96-20.66-64.46-35.84l-3.25-2.53-3.25,2.53ZM285.46,237.13c19.99,0,36.25,16.26,36.25,36.25,0,6.55-1.81,13.03-5.24,18.72l-2.92,4.85,5.03,2.59c10.8,5.55,20.11,13.79,26.91,23.81l4.88,7.19,4.14-7.64c6.21-11.45,9.49-24.39,9.49-37.43,0-43.31-35.23-78.54-78.54-78.54s-78.54,35.23-78.54,78.54c0,13.04,3.28,25.98,9.49,37.43l4.14,7.64,4.88-7.19c6.8-10.03,16.11-18.26,26.91-23.81l5.03-2.59-2.92-4.85c-3.43-5.69-5.24-12.16-5.24-18.71,0-19.99,16.26-36.25,36.25-36.25ZM153.74,65.95c-27.02,22.03-59.67,34.88-94.42,37.15l-4.94.32v66.65c0,64.22,40.55,122.03,100.91,143.86l1.8.65,1.8-.65c11.97-4.33,23.38-10.16,33.89-17.31l2.51-1.71-.21-3.03c-1.41-20.01,3.65-39.42,14.65-56.12,10.62-16.13,26.39-28.68,44.41-35.34l2.85-1.05.52-2.99c1.52-8.69,2.28-17.54,2.28-26.3v-66.65l-4.94-.33c-34.76-2.29-67.41-15.14-94.43-37.15l-3.34-2.72-3.34,2.72ZM285.46,291.5c3.95,0,7.96.33,11.91.99l2.54.42,1.9-1.74c5.04-4.61,7.82-10.93,7.82-17.8,0-13.32-10.84-24.17-24.17-24.17s-24.17,10.84-24.17,24.17c0,6.87,2.78,13.19,7.82,17.8l1.9,1.73,2.54-.42c3.96-.66,7.96-.99,11.91-.99Z"/>
      <path class="cls-1" d="M157.08,212.21c-1.61,0-3.13-.63-4.27-1.77l-24.17-24.17c-2.36-2.36-2.36-6.19,0-8.54,1.14-1.14,2.66-1.77,4.27-1.77s3.13.63,4.27,1.77l19.89,19.89,50.48-50.48c1.14-1.14,2.66-1.77,4.27-1.77s3.13.63,4.27,1.77c2.36,2.36,2.36,6.19,0,8.54l-54.75,54.75c-1.14,1.14-2.66,1.77-4.27,1.77Z"/>
    </g>
  </g>
</svg>