<?xml version="1.0" encoding="UTF-8"?>
<svg id="_레이어_2" data-name="레이어 2" xmlns="http://www.w3.org/2000/svg" viewBox="0 0 290.7 290.7">
  <defs>
    <style>
      .cls-1 {
        fill: none;
        stroke: #fff;
        stroke-linecap: round;
        stroke-linejoin: round;
        stroke-width: 5.5px;
      }

      .cls-2 {
        opacity: .2;
      }
    </style>
  </defs>
  <g id="_迹_2" data-name="卵迹_2">
    <circle class="cls-2" cx="145.35" cy="145.35" r="145.35"/>
    <g>
      <rect class="cls-1" x="58.41" y="62.57" width="57.96" height="24.02" rx="7.06" ry="7.06"/>
      <path class="cls-1" d="M90.27,121.97h-8.24c-2.87,0-5.2-2.33-5.2-5.2v-13.61c0-2.87,2.33-5.2,5.2-5.2h9.48"/>
      <path class="cls-1" d="M89.76,133.34h-26.15c-2.87,0-5.2,2.33-5.2,5.2v13.61c0,2.87,2.33,5.2,5.2,5.2h26.67"/>
      <path class="cls-1" d="M91.51,168.72h-13.16c-2.87,0-5.2,2.33-5.2,5.2v13.61c0,2.87,2.33,5.2,5.2,5.2h23.36"/>
      <path class="cls-1" d="M116.37,209.31v13.61c0,2.87-2.33,5.2-5.2,5.2h-47.55c-2.87,0-5.2-2.33-5.2-5.2v-13.61c0-2.87,2.33-5.2,5.2-5.2h47.55"/>
      <rect class="cls-1" x="174.33" y="62.57" width="57.96" height="24.02" rx="7.06" ry="7.06" transform="translate(406.62 149.15) rotate(180)"/>
      <path class="cls-1" d="M163.93,86.58h4.58c3.21,0,5.82-2.6,5.82-5.82v-12.38c0-3.21-2.61-5.81-5.82-5.81h-23.16s-23.16,0-23.16,0c-3.21,0-5.82,2.6-5.82,5.81v12.38c0,3.22,2.61,5.82,5.82,5.82h4.58"/>
      <path class="cls-1" d="M199.18,97.95h9.48c2.87,0,5.2,2.33,5.2,5.2v13.61c0,2.87-2.33,5.2-5.2,5.2h-8.24"/>
      <path class="cls-1" d="M200.42,157.36h26.67c2.87,0,5.2-2.33,5.2-5.2v-13.61c0-2.87-2.33-5.2-5.2-5.2h-26.15"/>
      <path class="cls-1" d="M188.99,192.74h23.36c2.87,0,5.2-2.33,5.2-5.2v-13.61c0-2.87-2.33-5.2-5.2-5.2h-13.16"/>
      <path class="cls-1" d="M174.33,209.31v13.61c0,2.87,2.33,5.2,5.2,5.2h47.55c2.87,0,5.2-2.33,5.2-5.2v-13.61c0-2.87-2.33-5.2-5.2-5.2h-47.55"/>
      <path class="cls-1" d="M174.33,209.31v13.61c0,2.87-2.33,5.2-5.2,5.2h-23.78s-23.78,0-23.78,0c-2.87,0-5.2-2.33-5.2-5.2v-13.61"/>
      <path class="cls-1" d="M96.71,148.48v-46.78c17.79,0,35.02-6.31,48.6-17.8l.03-.03.03.03c6.79,5.75,14.49,10.2,22.72,13.21,8.23,3.02,16.98,4.59,25.88,4.59v46.78c0,30.21-19.83,56.76-48.63,65.42-28.81-8.66-48.63-35.21-48.63-65.42Z"/>
      <g>
        <circle class="cls-1" cx="145.35" cy="148.89" r="29.39" transform="translate(-24.9 268.51) rotate(-80.78)"/>
        <path class="cls-1" d="M129.91,147.82s10.13,13.7,10.13,13.05,20.75-23.99,20.75-23.99"/>
      </g>
    </g>
  </g>
</svg>