<?xml version="1.0" encoding="UTF-8"?>
<svg id="_레이어_2" data-name="레이어 2" xmlns="http://www.w3.org/2000/svg" viewBox="0 0 376.08 350.41">
  <defs>
    <style>
      .cls-1 {
        fill: #fff;
      }
    </style>
  </defs>
  <g id="Layer_1" data-name="Layer 1">
    <g>
      <path class="cls-1" d="M175.96,173.44c0-14.03-11.14-35.24-27.94-35.24s-27.94,21.21-27.94,35.24c0,7.84,3.32,13.77,9.59,17.15,4.41,2.38,10.25,3.49,18.36,3.49s13.94-1.11,18.35-3.49c6.27-3.38,9.59-9.32,9.59-17.15ZM163.32,177.03l-.53,1.39-1.17.91c-2.29,1.78-6.88,2.68-13.62,2.68s-11.31-.9-13.6-2.68l-1.17-.91-.53-1.39c-.37-.96-.55-2.17-.55-3.59,0-9.68,7.99-23.16,15.86-23.16s15.86,13.47,15.86,23.16c0,1.42-.18,2.63-.55,3.59Z"/>
      <path class="cls-1" d="M228.07,138.2c-16.8,0-27.94,21.21-27.94,35.24,0,7.84,3.32,13.77,9.59,17.15,4.41,2.38,10.25,3.49,18.36,3.49s13.94-1.11,18.35-3.49c6.27-3.38,9.59-9.32,9.59-17.15,0-14.03-11.14-35.24-27.94-35.24ZM243.38,177.02l-.53,1.39-1.17.91c-2.3,1.78-6.88,2.68-13.62,2.68s-11.31-.9-13.6-2.68l-1.18-.91-.53-1.39c-.36-.96-.55-2.16-.55-3.58,0-9.68,7.99-23.16,15.86-23.16s15.86,13.47,15.86,23.16c0,1.42-.18,2.63-.55,3.59Z"/>
      <path class="cls-1" d="M192.31,220.02c-1.14-1.14-2.66-1.77-4.27-1.77s-3.13.63-4.27,1.77l-12.08,12.08c-2.36,2.36-2.36,6.19,0,8.55,1.14,1.14,2.66,1.77,4.27,1.77s3.13-.63,4.27-1.77l7.81-7.81,7.81,7.81c1.14,1.14,2.66,1.77,4.27,1.77s3.13-.63,4.27-1.77c2.36-2.36,2.36-6.19,0-8.54l-12.08-12.08Z"/>
      <path class="cls-1" d="M295.62,185.76l.67-4.52h19.59s1.16,3.71,1.16,3.71c3.97,12.69,15.56,21.21,28.84,21.21,16.66,0,30.21-13.55,30.21-30.21s-13.55-30.21-30.21-30.21c-12.66,0-24.08,8.01-28.41,19.93l-1.26,3.48h-19.31l-.26-5.01c-.52-9.75-2.36-19.38-5.47-28.63l-1.47-4.38,46.24-22.83c9.86-4.87,15.99-14.73,15.99-25.73v-22.54l3.59-1.21c12.3-4.16,20.57-15.66,20.57-28.62,0-16.66-13.55-30.21-30.21-30.21s-30.21,13.55-30.21,30.21c0,12.96,8.27,24.46,20.57,28.62l3.59,1.21v22.54c0,6.37-3.55,12.08-9.26,14.9l-45.84,22.64-2.48-4.28c-9.91-17.12-24.11-31.2-41.09-40.72-16.28-9.13-34.77-13.95-53.48-13.95-28.65,0-55.73,11.21-76.23,31.55-6.95,6.9-12.93,14.65-17.76,23.04l-2.48,4.29-45.7-22.57c-5.71-2.82-9.26-8.53-9.26-14.9v-22.54l3.59-1.21c12.3-4.16,20.57-15.66,20.57-28.62C60.41,13.55,46.86,0,30.21,0S0,13.55,0,30.21c0,12.96,8.27,24.46,20.57,28.62l3.59,1.21v22.54c0,11,6.13,20.86,15.99,25.73l46.13,22.78-1.45,4.37c-3.06,9.21-4.88,18.86-5.38,28.68l-.26,5.01h-19.31l-1.26-3.48c-4.33-11.92-15.74-19.93-28.4-19.93-16.66,0-30.21,13.55-30.21,30.21s13.55,30.21,30.21,30.21c13.28,0,24.87-8.52,28.84-21.21l1.16-3.71h19.58l.67,4.51c1.37,9.29,3.95,18.4,7.66,27.06l1.98,4.6-49.94,24.66c-9.86,4.87-15.99,14.73-15.99,25.73v22.54l-3.59,1.21c-12.3,4.16-20.57,15.66-20.57,28.62,0,16.66,13.55,30.21,30.21,30.21s30.21-13.55,30.21-30.21c0-12.96-8.27-24.46-20.57-28.62l-3.59-1.21v-22.54c0-6.37,3.55-12.08,9.26-14.9l50.48-24.93,2.6,3.76c1.23,1.78,2.5,3.5,3.76,5.12l1.12,1.44v10.15c0,16.16,10.87,30.51,26.43,34.9l3.6,1.01.24,3.73c.98,15.04,13.56,26.81,28.64,26.81h51.35c15.08,0,27.66-11.78,28.64-26.81l.24-3.73,3.6-1.01c15.56-4.39,26.43-18.74,26.43-34.9v-10.15l1.12-1.44c1.26-1.62,2.53-3.34,3.76-5.12l2.6-3.76,50.48,24.93c5.71,2.82,9.26,8.53,9.26,14.9v22.54l-3.59,1.21c-12.3,4.16-20.57,15.66-20.57,28.62,0,16.66,13.55,30.21,30.21,30.21s30.21-13.55,30.21-30.21c0-12.96-8.27-24.46-20.57-28.62l-3.59-1.21v-22.54c0-11-6.13-20.86-15.99-25.73l-49.94-24.66,1.97-4.61c3.71-8.65,6.29-17.76,7.66-27.06ZM345.88,157.83c9.99,0,18.12,8.13,18.12,18.12s-8.13,18.12-18.12,18.12-18.12-8.13-18.12-18.12,8.13-18.12,18.12-18.12ZM327.75,30.21c0-9.99,8.13-18.12,18.12-18.12s18.12,8.13,18.12,18.12-8.13,18.12-18.12,18.12-18.12-8.13-18.12-18.12ZM30.21,48.33c-9.99,0-18.12-8.13-18.12-18.12S20.21,12.08,30.21,12.08s18.12,8.13,18.12,18.12-8.13,18.12-18.12,18.12ZM30.21,194.08c-9.99,0-18.12-8.13-18.12-18.12s8.13-18.12,18.12-18.12,18.12,8.13,18.12,18.12-8.13,18.12-18.12,18.12ZM48.33,320.2c0,9.99-8.13,18.12-18.12,18.12s-18.12-8.13-18.12-18.12,8.13-18.12,18.12-18.12,18.12,8.13,18.12,18.12ZM261.96,232.21c-.92,1.09-1.42,2.47-1.42,3.9v12.35c0,13.32-10.84,24.17-24.17,24.17-3.33,0-6.04,2.71-6.04,6.04v7.55c0,9.16-7.45,16.61-16.61,16.61h-19.63v-12.08c0-3.33-2.71-6.04-6.04-6.04s-6.04,2.71-6.04,6.04v12.08h-19.63c-9.16,0-16.61-7.45-16.61-16.61v-7.55c0-3.33-2.71-6.04-6.04-6.04-13.33,0-24.17-10.84-24.17-24.17v-12.35c0-1.42-.51-2.81-1.42-3.9-23.55-27.91-29.32-67.56-14.71-101l.05-.12.1-.21c.04-.09.08-.17.19-.44l.04-.11.05-.11c15.59-34.61,50.21-56.97,88.19-56.97,53.02,0,96.38,43.13,96.67,96.14.12,22.99-7.95,45.3-22.74,62.82ZM345.88,302.07c9.99,0,18.12,8.13,18.12,18.12s-8.13,18.12-18.12,18.12-18.12-8.13-18.12-18.12,8.13-18.12,18.12-18.12Z"/>
    </g>
  </g>
</svg>