<?xml version="1.0" encoding="UTF-8"?>
<svg id="_레이어_1" xmlns="http://www.w3.org/2000/svg" version="1.1" viewBox="0 0 150 150">
  <!-- Generator: Adobe Illustrator 29.2.0, SVG Export Plug-In . SVG Version: 2.1.0 Build 108)  -->
  <defs>
    <style>
      .st0 {
        fill: #e5e5e5;
      }
    </style>
  </defs>
  <g id="_레이어_11">
    <g>
      <path class="st0" d="M144.2,114h-14.5l-11.4-11.4s-.3-.2-.4-.3h-12.7v-19.1h10.2l9.6,9.6s.3.2.4.3h18.8c1.4,0,2.6-1.1,2.6-2.6s-1.1-2.6-2.6-2.6h-16.3l-9.6-9.6s-.3-.2-.4-.3h-12.8v-12.2h14.8c1.4,0,2.6-1.1,2.6-2.6v-12.8l16.6-16.6c1-1,1-2.6,0-3.6s-2.6-1-3.6,0l-17.3,17.3s-.2.3-.3.4v1.5h0v11.3h-12.2v-7.8c0-1.4-1.1-2.6-2.6-2.6h-55.5c-1.4,0-2.6,1.1-2.6,2.6v7.8h-12.2v-12.7s-.2-.3-.3-.4h0L14.2,29.8c-1-1-2.6-1-3.6,0s-1,2.6,0,3.6l16.6,16.6v12.8c0,1.4,1.1,2.6,2.6,2.6h14.8v12.2h-12.7c-.1,0-.3.2-.4.3l-9.6,9.6H5.5c-1.4,0-2.6,1.1-2.6,2.6s1.1,2.6,2.6,2.6h18.7c.1,0,.3-.2.4-.3l9.6-9.6h10.2v19.1h-12.7c-.1,0-.3.2-.4.3l-11.4,11.4H5.5c-1.4,0-2.6,1.1-2.6,2.6s1.1,2.6,2.6,2.6h17.1c.1,0,.3-.2.4-.3l11.4-11.4h10.2v.9c0,16.7,13.6,30.3,30.3,30.3s30.3-13.6,30.3-30.3v-.9h10.2l11.4,11.4s.3.2.4.3h17c1.4,0,2.6-1.1,2.6-2.6s-1.1-2.6-2.6-2.6v.3h0ZM100,107.9c0,13-9.9,23.8-22.6,25v-45.9h-5.1v45.9c-12.7-1.3-22.6-12-22.6-25v-52.9h50.3v52.9Z"/>
      <path class="st0" d="M65.2,32.4c-6.1,3.4-10.3,9.9-10.3,17.4h5.1c0-8.1,6.6-14.8,14.8-14.8s14.8,6.6,14.8,14.8h5.1c0-7.5-4.2-14-10.3-17.4.9-7.3,7.1-12.9,14.6-12.9v-5.1c-9.7,0-17.8,7-19.5,16.2-1.5-.4-3.1-.6-4.7-.6s-3.2.2-4.7.6c-1.8-9.2-9.9-16.2-19.5-16.2v5.1c7.5,0,13.7,5.7,14.6,12.9Z"/>
    </g>
  </g>
</svg>