<?xml version="1.0" encoding="UTF-8"?>
<svg id="_레이어_1" xmlns="http://www.w3.org/2000/svg" version="1.1" viewBox="0 0 150 150">
  <!-- Generator: Adobe Illustrator 29.2.0, SVG Export Plug-In . SVG Version: 2.1.0 Build 108)  -->
  <defs>
    <style>
      .st0 {
        fill: #e5e5e5;
      }
    </style>
  </defs>
  <g id="_레이어_11">
    <g>
      <path class="st0" d="M117.5,54.7c4.4,0,8-3.6,8-8v-16c0-4.4-3.6-8-8-8H37.8c-4.4,0-8,3.6-8,8v16c0,4.4,3.6,8,8,8h37.2v5.3h-37.2c-4.4,0-8,3.6-8,8v15.9c0,4.4,3.6,8,8,8h37.2v5.3h-37.2c-4.4,0-8,3.6-8,8v16c0,4.4,3.6,8,8,8h79.8c4.4,0,8-3.6,8-8v-16c0-4.4-3.6-8-8-8h-37.2v-5.3h37.2c4.4,0,8-3.6,8-8v-15.9c0-4.4-3.6-8-8-8h-37.2v-5.3h37.2s0,0-.1,0ZM120.2,105.2v16c0,1.5-1.2,2.7-2.7,2.7H37.8c-1.5,0-2.7-1.2-2.7-2.7v-16c0-1.5,1.2-2.7,2.7-2.7h79.8c1.5,0,2.7,1.2,2.7,2.7h-.1ZM120.2,68v15.9c0,1.5-1.2,2.7-2.7,2.7H37.8c-1.5,0-2.7-1.2-2.7-2.7v-15.9c0-1.5,1.2-2.7,2.7-2.7h79.8c1.5,0,2.7,1.2,2.7,2.7h-.1ZM35.1,46.7v-16c0-1.5,1.2-2.7,2.7-2.7h79.8c1.5,0,2.7,1.2,2.7,2.7v16c0,1.5-1.2,2.7-2.7,2.7H37.8c-1.5,0-2.7-1.2-2.7-2.7Z"/>
      <rect class="st0" x="64.4" y="36.1" width="34.6" height="5.3"/>
      <rect class="st0" x="51.1" y="36.1" width="5.3" height="5.3"/>
      <rect class="st0" x="40.4" y="36.1" width="5.3" height="5.3"/>
      <rect class="st0" x="64.4" y="73.3" width="34.6" height="5.3"/>
      <rect class="st0" x="51.1" y="73.3" width="5.3" height="5.3"/>
      <rect class="st0" x="40.4" y="73.3" width="5.3" height="5.3"/>
      <rect class="st0" x="64.4" y="110.5" width="34.6" height="5.3"/>
      <rect class="st0" x="51.1" y="110.5" width="5.3" height="5.3"/>
      <rect class="st0" x="40.4" y="110.5" width="5.3" height="5.3"/>
    </g>
  </g>
</svg>