<?xml version="1.0" encoding="UTF-8"?>
<svg id="_레이어_1" xmlns="http://www.w3.org/2000/svg" version="1.1" viewBox="0 0 150 150">
  <!-- Generator: Adobe Illustrator 29.2.0, SVG Export Plug-In . SVG Version: 2.1.0 Build 108)  -->
  <defs>
    <style>
      .st0 {
        fill: #e5e5e5;
      }
    </style>
  </defs>
  <g id="_레이어_11">
    <g>
      <path class="st0" d="M75.5,76.3c16.6,0,30-13.5,30-30s-13.5-30-30-30-30,13.5-30,30,13.5,30,30,30ZM75.5,21.4c13.7,0,24.9,11.2,24.9,24.9s-11.2,24.9-24.9,24.9-24.9-11.2-24.9-24.9,11.2-24.9,24.9-24.9Z"/>
      <path class="st0" d="M97.5,87.7h-44c-16.6,0-30,13.5-30,30v19h104v-19c0-16.6-13.5-30-30-30ZM79.6,92.8l-2.9,5.9h-2.3l-2.9-5.9h8.2,0ZM28.6,117.7c0-13.7,11.2-24.9,24.9-24.9h12.1l4.2,8.4-2.2,4.3c-.2.4-.3.7-.3,1.1v24.9h-22.3v-16.7h-5.1v16.7h-11.3v-13.9h0ZM72.6,131.6v-24.3l1.8-3.5h2.3l1.8,3.5v24.3h-5.9ZM122.4,131.6h-11.3v-16.7h-5.1v16.7h-22.3v-24.9c0-.4,0-.8-.3-1.1l-2.2-4.3,4.2-8.4h12.1c13.7,0,24.9,11.2,24.9,24.9v13.9h0Z"/>
    </g>
  </g>
</svg>