<?xml version="1.0" encoding="UTF-8"?>
<svg id="_레이어_2" xmlns="http://www.w3.org/2000/svg" version="1.1" viewBox="0 0 249.7 34.5">
  <!-- Generator: Adobe Illustrator 29.6.1, SVG Export Plug-In . SVG Version: 2.1.1 Build 9)  -->
  <defs>
    <style>
      .st0, .st1 {
        fill: #fff;
      }

      .st1 {
        isolation: isolate;
      }

      .st1, .st2 {
        opacity: .7;
      }
    </style>
  </defs>
  <g id="_레이어_1-2">
    <g class="st2">
      <path class="st0" d="M26.4,15.5c-.9-.2-1.8-.1-2.8.1-1,.3-1.9.7-2.7,1.4-1.3,1.1-2.1,2.4-2.4,4-.1.9,0,1.9.3,3l9.4-7.7c-.6-.4-1.3-.6-1.8-.8Z"/>
      <path class="st0" d="M27.1,2.1c-8.7,0-15.7,7-15.7,15.7s2.3,9.4,6,12.3c-.2-.2-.4-.4-.6-.7-1.7-2.1-2.6-4.5-2.6-7.2,0-3.4,1.3-6.3,4-8.5,2.8-2.3,6-3.1,9.4-2.3,2.4.5,4.6,1.9,6.5,4.1l.6.7-.7.6-13,10.6c1.2,1.1,2.5,1.8,4,1.9,1.8.2,3.3-.3,4.8-1.4.7-.6,1.3-1.2,1.7-2,.5-.8.8-1.5.9-2.3.2-1.3.2-1.6,0-2.4v-.5c0,0,.3-.3.3-.3l2-1.7.9-.7.5,1c.9,1.9.7,3.6.5,4.7v.3c-.2,1.3-.7,2.6-1.3,3.8-.7,1.2-1.6,2.2-2.8,3.2-1.6,1.3-3.2,2.1-4.9,2.5,8.4-.3,15.2-7.2,15.2-15.7s-7-15.7-15.7-15.7Z"/>
    </g>
    <path class="st1" d="M91.3,17.9l-6.9-.7c.3-1.2.6-2.1,1.1-2.8.5-.7,1.2-1.3,2.1-1.8.7-.4,1.6-.6,2.7-.8s2.4-.3,3.7-.3c2.2,0,3.9.1,5.2.4,1.3.2,2.4.7,3.3,1.5.6.5,1.1,1.3,1.4,2.3s.5,1.9.5,2.8v8.3c0,.9,0,1.6.2,2.1.1.5.4,1.1.7,1.9h-6.7c-.3-.5-.4-.8-.5-1.1s-.2-.7-.2-1.2c-.9.9-1.9,1.6-2.8,1.9-1.3.5-2.7.8-4.4.8s-3.9-.5-5.1-1.6c-1.2-1-1.7-2.3-1.7-3.8s.4-2.6,1.3-3.5,2.4-1.6,4.6-2c2.7-.5,4.4-.9,5.2-1.1.8-.2,1.6-.5,2.5-.9,0-.9-.2-1.5-.5-1.9s-1-.5-1.9-.5-2.1.2-2.6.6c-.5.3-.8.8-1.1,1.7h0ZM97.5,21.7c-1,.4-2,.7-3.1.9-1.5.4-2.4.8-2.8,1.1-.4.4-.6.8-.6,1.3s.2,1,.6,1.4c.4.4,1,.5,1.7.5s1.5-.2,2.2-.6c.7-.4,1.2-.9,1.5-1.4.3-.6.4-1.3.4-2.2v-1.1h0Z"/>
    <path class="st1" d="M160.1,22.9h-14.4c.1,1.2.4,2,.9,2.6.7.8,1.6,1.2,2.7,1.2s1.4-.2,2-.5c.4-.2.8-.6,1.3-1.2l7.1.7c-1.1,1.9-2.4,3.2-3.9,4-1.5.8-3.7,1.2-6.6,1.2s-4.4-.4-5.9-1c-1.4-.7-2.6-1.8-3.5-3.3s-1.4-3.3-1.4-5.4c0-2.9.9-5.3,2.8-7.1,1.9-1.8,4.5-2.7,7.8-2.7s4.8.4,6.4,1.2,2.7,2,3.5,3.5,1.2,3.5,1.2,6v.8h0ZM152.8,19.5c-.1-1.4-.5-2.4-1.1-3-.6-.6-1.4-.9-2.4-.9s-2.1.5-2.7,1.4c-.4.6-.7,1.4-.8,2.5,0,0,7.1,0,7.1,0Z"/>
    <path class="st1" d="M162.1,11.8h6.7v3.1c.6-1.3,1.3-2.2,2-2.7.7-.5,1.5-.8,2.5-.8s2.2.3,3.5,1l-2.2,5.1c-.8-.4-1.5-.5-2-.5-.9,0-1.7.4-2.2,1.2-.7,1.1-1.1,3.1-1.1,6.1v6.3h-7.2V11.8h0Z"/>
    <path class="st1" d="M48.5,4.7h7.6l2.7,14.5,4-14.5h7.6l4,14.5,2.7-14.5h7.6l-5.7,25.8h-7.8l-4.5-16.3-4.5,16.3h-7.8l-5.8-25.8h0Z"/>
    <path class="st1" d="M107.6,4.7h7.2v25.8h-7.2V4.7Z"/>
    <path class="st1" d="M117.9,4.7h7.3v13.3l5.4-6.2h8.8l-6.7,6.6,7.1,12.2h-8.1l-3.8-7.5-2.7,2.6v4.9h-7.3V4.7h0Z"/>
    <g>
      <path class="st0" d="M181.2,27.5l3-3.4c1.9,1.6,4.3,2.7,6.6,2.7s4.2-1.1,4.2-2.8-1.6-2.4-3.9-3.4l-3.5-1.4c-2.6-1-5.3-3-5.3-6.7s3.7-7.2,9-7.2,6.1,1.1,8.2,3.2l-2.6,3.1c-1.7-1.3-3.4-2-5.5-2s-3.8,1-3.8,2.6,1.9,2.4,4.1,3.2l3.4,1.4c3.2,1.2,5.2,3.2,5.2,6.7s-3.6,7.5-9.6,7.5-7-1.3-9.5-3.6h0Z"/>
      <path class="st0" d="M200.4,27.5l3-3.4c1.9,1.6,4.3,2.7,6.6,2.7s4.2-1.1,4.2-2.8-1.6-2.4-3.9-3.4l-3.5-1.4c-2.6-1-5.3-3-5.3-6.7s3.7-7.2,9-7.2,6.1,1.1,8.2,3.2l-2.6,3.1c-1.7-1.3-3.4-2-5.5-2s-3.8,1-3.8,2.6,1.9,2.4,4.1,3.2l3.4,1.4c3.2,1.2,5.2,3.2,5.2,6.7s-3.6,7.5-9.6,7.5-7-1.3-9.5-3.6h0Z"/>
      <path class="st0" d="M221.9,5.8h16v4.1h-10.8v5.7h9.1v4.2h-9.1v6.6h11.1v4.2h-16.4V5.8h0Z"/>
    </g>
  </g>
</svg>