<?xml version="1.0" encoding="UTF-8"?>
<svg id="_레이어_1" xmlns="http://www.w3.org/2000/svg" version="1.1" viewBox="0 0 260.8 45">
  <!-- Generator: Adobe Illustrator 29.2.0, SVG Export Plug-In . SVG Version: 2.1.0 Build 108)  -->
  <defs>
    <style>
      .st0, .st1 {
        fill: #fff;
      }

      .st1 {
        isolation: isolate;
        opacity: .7;
      }
    </style>
  </defs>
  <path class="st1" d="M21.5,20c-.9-.2-2-.2-3,.1-1.1.3-2.1.8-3,1.5-1.4,1.2-2.3,2.6-2.6,4.4-.1.9,0,2,.3,3.2l10.2-8.4c-.7-.4-1.4-.7-2-.8h.1Z"/>
  <path class="st1" d="M22.3,5.5c-9.4,0-17,7.6-17,17s2.5,10.2,6.5,13.3c-.2-.2-.4-.5-.6-.7-1.8-2.3-2.8-4.9-2.9-7.8,0-3.7,1.4-6.8,4.4-9.3s6.5-3.3,10.2-2.5c2.6.6,5,2.1,7,4.5l.6.8-.8.6-14.1,11.5c1.3,1.2,2.7,1.9,4.3,2.1,1.9.2,3.6-.3,5.2-1.6.8-.6,1.4-1.3,1.9-2.2.5-.8.8-1.7,1-2.5.3-1.4.2-1.7,0-2.6v-.5l.4-.4,2.2-1.8,1-.8.6,1.1c1,2.1.7,3.9.5,5.1v.3c-.3,1.4-.7,2.8-1.5,4.1-.7,1.3-1.7,2.4-3,3.5-1.7,1.4-3.5,2.3-5.3,2.7,9.1-.3,16.5-7.8,16.5-17S31.7,5.5,22.3,5.5Z"/>
  <path class="st1" d="M45.5,8.3h8.2l3,15.7,4.3-15.7h8.2l4.3,15.7,3-15.7h8.2l-6.2,28h-8.5l-4.9-17.6-4.9,17.6h-8.5s-6.2-28-6.2-28Z"/>
  <path class="st1" d="M91.8,22.6l-7.4-.8c.3-1.3.7-2.3,1.2-3.1s1.3-1.4,2.3-1.9c.7-.4,1.7-.7,2.9-.9,1.2-.2,2.6-.3,4.1-.3,2.3,0,4.2.1,5.6.4,1.4.3,2.6.8,3.5,1.6.7.6,1.2,1.4,1.6,2.4s.6,2.1.6,3v9c0,1,0,1.7.2,2.2,0,.5.4,1.2.8,2.1h-7.3c-.3-.5-.5-.9-.6-1.2s-.2-.7-.3-1.3c-1,1-2,1.7-3,2.1-1.4.6-3,.8-4.8.8s-4.3-.6-5.5-1.7c-1.3-1.1-1.9-2.5-1.9-4.1s.5-2.8,1.4-3.8,2.6-1.7,5-2.2c2.9-.6,4.8-1,5.7-1.2.9-.2,1.8-.5,2.8-.9,0-1-.2-1.6-.6-2s-1.1-.6-2.1-.6-2.2.2-2.9.6c-.5.3-.9.9-1.2,1.8h0ZM98.6,26.7c-1.1.4-2.2.7-3.3,1-1.6.4-2.6.8-3,1.2-.4.4-.7.9-.7,1.4s.2,1.1.6,1.5,1.1.6,1.9.6,1.7-.2,2.4-.6c.7-.4,1.3-.9,1.6-1.5.3-.6.5-1.4.5-2.4v-1.2Z"/>
  <path class="st1" d="M109.5,8.3h7.8v28h-7.8V8.3Z"/>
  <path class="st1" d="M120.7,8.3h7.9v14.5l5.8-6.7h9.6l-7.3,7.1,7.7,13.2h-8.8l-4.1-8.1-2.9,2.9v5.3h-7.9s0-28.2,0-28.2Z"/>
  <path class="st1" d="M166.5,28.1h-15.6c.1,1.2.5,2.2,1,2.8.8.9,1.7,1.3,2.9,1.3s1.5-.2,2.2-.6c.4-.2.9-.7,1.4-1.3l7.7.7c-1.2,2-2.6,3.5-4.2,4.4-1.7.9-4,1.3-7.1,1.3s-4.8-.4-6.3-1.1c-1.5-.8-2.8-2-3.8-3.6-1-1.7-1.5-3.6-1.5-5.8,0-3.2,1-5.7,3-7.7s4.8-2.9,8.4-2.9,5.2.4,6.9,1.3,3,2.2,3.8,3.8c.9,1.7,1.3,3.8,1.3,6.5v.9h0ZM158.6,24.4c-.2-1.5-.6-2.6-1.2-3.2-.7-.7-1.5-1-2.6-1s-2.2.5-3,1.5c-.5.6-.8,1.5-.9,2.7h7.7Z"/>
  <path class="st1" d="M168.6,16h7.3v3.3c.7-1.4,1.4-2.4,2.2-3,.7-.5,1.7-.8,2.8-.8s2.4.4,3.8,1.1l-2.4,5.5c-.9-.4-1.6-.6-2.2-.6-1,0-1.8.4-2.4,1.3-.8,1.2-1.2,3.4-1.2,6.7v6.8h-7.8V16h-.1Z"/>
  <g>
    <path class="st0" d="M189.3,33l3.2-3.7c2,1.8,4.7,3,7.2,3s4.5-1.2,4.5-3.1-1.7-2.6-4.2-3.6l-3.8-1.5c-2.9-1.1-5.7-3.3-5.7-7.2s4-7.8,9.8-7.8,6.6,1.2,8.8,3.4l-2.9,3.4c-1.8-1.4-3.7-2.2-6-2.2s-4.1,1.1-4.1,2.8,2,2.6,4.4,3.5l3.7,1.5c3.4,1.3,5.7,3.4,5.7,7.3s-3.8,8.1-10.4,8.1-7.5-1.4-10.3-3.9h.1Z"/>
    <path class="st0" d="M210.1,33l3.2-3.7c2,1.8,4.7,3,7.2,3s4.5-1.2,4.5-3.1-1.7-2.6-4.2-3.6l-3.8-1.5c-2.9-1.1-5.7-3.3-5.7-7.2s4-7.8,9.8-7.8,6.6,1.2,8.8,3.4l-2.9,3.4c-1.8-1.4-3.7-2.2-6-2.2s-4.1,1.1-4.1,2.8,2,2.6,4.4,3.5l3.7,1.5c3.4,1.3,5.7,3.4,5.7,7.3s-3.8,8.1-10.4,8.1-7.5-1.4-10.3-3.9h.1Z"/>
    <path class="st0" d="M232,23.1c0-8.9,6-14,13.5-14s6.9,1.7,8.7,3.4l-3,3.4c-1.4-1.3-3-2.3-5.5-2.3-4.7,0-8,3.5-8,9.3s2.8,9.4,8.3,9.4,2.7-.4,3.5-1v-5.3h-5v-4.4h10v12.1c-1.9,1.8-5.2,3.2-9.1,3.2-7.7,0-13.5-4.9-13.5-13.8h.1Z"/>
  </g>
</svg>