<?xml version="1.0" encoding="UTF-8"?>
<svg id="_레이어_1" xmlns="http://www.w3.org/2000/svg" version="1.1" viewBox="0 0 340 45">
  <!-- Generator: Adobe Illustrator 29.2.0, SVG Export Plug-In . SVG Version: 2.1.0 Build 108)  -->
  <defs>
    <style>
      .st0, .st1 {
        fill: #595757;
      }

      .st1 {
        isolation: isolate;
        opacity: .7;
      }

      .st2 {
        fill: #044892;
      }
    </style>
  </defs>
  <path class="st2" d="M23.9,20c-1-.2-2-.2-3.1.1-1.1.3-2.1.8-3,1.5-1.5,1.2-2.3,2.6-2.6,4.4-.1,1,0,2,.3,3.2l10.3-8.4c-.7-.4-1.4-.7-2-.8h0Z"/>
  <path d="M94.5,22.6l-7.5-.8c.3-1.3.7-2.3,1.2-3.1s1.3-1.4,2.3-2c.7-.4,1.7-.7,3-.9,1.2-.2,2.6-.3,4.1-.3,2.3,0,4.2.1,5.6.4,1.4.3,2.6.8,3.6,1.6.7.6,1.2,1.4,1.6,2.5.4,1.1.6,2.1.6,3v9c0,1,0,1.7.2,2.3.1.5.4,1.2.8,2.1h-7.3c-.3-.5-.5-.9-.6-1.2s-.2-.7-.3-1.3c-1,1-2,1.7-3.1,2.1-1.4.6-3,.8-4.8.8s-4.3-.6-5.5-1.7c-1.3-1.1-1.9-2.5-1.9-4.2s.4-2.8,1.4-3.8,2.6-1.7,5-2.2c2.9-.6,4.8-1,5.7-1.2.9-.2,1.8-.5,2.8-.9,0-1-.2-1.6-.6-2-.4-.4-1.1-.6-2.1-.6s-2.2.2-2.9.6c-.5.3-.9.9-1.2,1.8h0ZM101.3,26.7c-1.1.4-2.2.7-3.4,1-1.6.4-2.6.8-3,1.2-.4.4-.7.9-.7,1.4s.2,1.1.6,1.5c.4.4,1.1.6,1.9.6s1.7-.2,2.4-.6,1.3-.9,1.6-1.5c.3-.6.5-1.4.5-2.4,0,0,0-1.2,0-1.3Z"/>
  <path d="M169.5,28.1h-15.7c.1,1.2.5,2.2,1,2.8.8.9,1.7,1.3,3,1.3s1.5-.2,2.2-.6c.4-.2.9-.7,1.4-1.3l7.7.7c-1.2,2-2.6,3.5-4.3,4.4-1.7.9-4.1,1.3-7.2,1.3s-4.8-.4-6.4-1.1c-1.6-.8-2.8-2-3.9-3.6s-1.5-3.6-1.5-5.9c0-3.2,1-5.8,3.1-7.7s4.9-3,8.4-3,5.2.4,6.9,1.3c1.7.9,3,2.2,3.9,3.8.9,1.7,1.3,3.9,1.3,6.6v.9h0ZM161.6,24.4c-.1-1.5-.6-2.6-1.2-3.2s-1.5-1-2.6-1-2.2.5-3,1.5c-.5.6-.8,1.5-.9,2.8h7.7,0Z"/>
  <path d="M171.6,16h7.3v3.3c.7-1.5,1.4-2.4,2.2-3,.8-.5,1.7-.8,2.8-.8s2.4.4,3.8,1.1l-2.4,5.6c-.9-.4-1.6-.6-2.2-.6-1,0-1.8.4-2.4,1.3-.8,1.2-1.2,3.4-1.2,6.7v6.8h-7.9v-20.4h0Z"/>
  <path class="st2" d="M24.7,5.4c-9.4,0-17.1,7.7-17.1,17.1s2.5,10.3,6.5,13.4c-.2-.2-.4-.5-.6-.7-1.9-2.3-2.8-4.9-2.9-7.8,0-3.7,1.4-6.9,4.4-9.3,3.1-2.5,6.5-3.4,10.2-2.5,2.6.6,5,2.1,7,4.5l.6.8-.8.6-14.1,11.5c1.3,1.2,2.7,1.9,4.4,2.1,1.9.2,3.6-.3,5.2-1.6.8-.6,1.4-1.4,1.9-2.2s.8-1.7,1-2.5c.2-1.4.2-1.7,0-2.6v-.5c0,0,.4-.4.4-.4l2.2-1.8,1-.8.6,1.1c1,2.1.7,3.9.5,5.2v.3c-.3,1.5-.7,2.8-1.5,4.1-.7,1.3-1.8,2.4-3.1,3.5-1.7,1.4-3.5,2.3-5.3,2.7,9.2-.3,16.5-7.8,16.5-17.1S34.1,5.4,24.7,5.4Z"/>
  <path d="M48,8.3h8.3l3,15.8,4.3-15.8h8.2l4.4,15.7,3-15.7h8.2l-6.2,28.1h-8.5l-4.9-17.7-4.9,17.7h-8.5l-6.3-28.1h0Z"/>
  <path d="M112.3,8.3h7.8v28.1h-7.8V8.3Z"/>
  <path d="M123.6,8.3h8v14.5l5.8-6.8h9.6l-7.3,7.1,7.7,13.2h-8.8l-4.1-8.2-2.9,2.9v5.3h-8V8.3h0Z"/>
  <g>
    <path class="st0" d="M192.4,33.1l3.2-3.7c2,1.8,4.7,3,7.2,3s4.5-1.2,4.5-3.1-1.7-2.6-4.2-3.6l-3.8-1.5c-2.9-1.1-5.7-3.3-5.7-7.2s4.1-7.8,9.8-7.8,6.6,1.2,8.9,3.5l-2.9,3.4c-1.8-1.4-3.7-2.2-6-2.2s-4.1,1.1-4.1,2.8,2,2.6,4.4,3.5l3.7,1.5c3.4,1.4,5.7,3.4,5.7,7.3s-3.9,8.2-10.4,8.2-7.6-1.4-10.3-3.9h0Z"/>
    <path class="st0" d="M213.1,9.5h5.8l2.3,13.2c.4,2.8.9,5.7,1.3,8.6h.1c.6-2.9,1.2-5.8,1.8-8.6l3.3-13.2h4.8l3.3,13.2c.6,2.8,1.2,5.7,1.8,8.6h.2c.4-2.9.8-5.8,1.3-8.6l2.2-13.2h5.4l-5.2,27h-7l-3.2-13.3c-.5-2.1-.9-4.2-1.2-6.2h-.1c-.4,2-.8,4.1-1.2,6.2l-3.1,13.3h-6.9l-5.5-27h0Z"/>
    <path class="st0" d="M247.1,23.1c0-8.9,6.1-14.1,13.6-14.1s6.9,1.7,8.8,3.5l-3,3.4c-1.4-1.3-3-2.3-5.5-2.3-4.7,0-8,3.5-8,9.3s2.8,9.4,8.4,9.4,2.8-.4,3.6-1v-5.3h-5v-4.4h10.1v12.2c-1.9,1.8-5.2,3.2-9.2,3.2-7.7,0-13.6-4.9-13.6-13.9h0Z"/>
    <path class="st1" d="M276.4,10.2h2.4l5,15.1c1,3.2,1.7,5.6,2.8,8.8h.1c1.1-3.2,1.9-5.6,2.9-8.8l4.9-15.1h2.3l-9,26.2h-2.5l-9-26.2h0Z"/>
    <path class="st1" d="M299,34.7h6.2V13.3h-4.8v-1.4c2.2-.4,3.9-.9,5.2-1.7h1.8v24.4h5.8v1.8h-14.2v-1.8h0Z"/>
    <path class="st1" d="M316.2,23.3c0-9.1,3.1-13.5,8.1-13.5s8.1,4.4,8.1,13.5-3.1,13.7-8.1,13.7-8.1-4.5-8.1-13.7ZM330.2,23.3c0-7.8-2.3-11.7-5.9-11.7s-5.9,3.9-5.9,11.7,2.3,11.9,5.9,11.9,5.9-4,5.9-11.9Z"/>
  </g>
</svg>