<?xml version="1.0" encoding="UTF-8"?>
<svg id="_레이어_1" xmlns="http://www.w3.org/2000/svg" version="1.1" viewBox="0 0 204.1 45">
  <!-- Generator: Adobe Illustrator 29.2.0, SVG Export Plug-In . SVG Version: 2.1.0 Build 108)  -->
  <defs>
    <style>
      .st0, .st1 {
        fill: #fff;
      }

      .st1 {
        isolation: isolate;
      }

      .st1, .st2 {
        opacity: .7;
      }
    </style>
  </defs>
  <g class="st2">
    <path class="st0" d="M21.4,20c-.9-.2-2-.2-3,.1-1.1.3-2.1.8-3,1.5-1.4,1.2-2.3,2.6-2.6,4.4-.1.9,0,2,.3,3.2l10.2-8.4c-.7-.4-1.4-.7-2-.8h.1Z"/>
    <path class="st0" d="M22.2,5.5c-9.4,0-17,7.6-17,17s2.5,10.2,6.5,13.3c-.2-.2-.4-.5-.6-.7-1.8-2.3-2.8-4.9-2.9-7.8,0-3.7,1.4-6.8,4.4-9.3s6.5-3.3,10.2-2.5c2.6.6,5,2.1,7,4.5l.6.8-.8.6-14.1,11.5c1.3,1.2,2.7,1.9,4.3,2.1,1.9.2,3.6-.3,5.2-1.6.8-.6,1.4-1.3,1.9-2.2.5-.8.8-1.7,1-2.5.3-1.4.2-1.7,0-2.6v-.5l.4-.4,2.2-1.8,1-.8.6,1.1c1,2.1.7,3.9.5,5.1v.3c-.3,1.4-.7,2.8-1.5,4.1-.7,1.3-1.7,2.4-3,3.5-1.7,1.4-3.5,2.3-5.3,2.7,9.1-.3,16.5-7.8,16.5-17S31.6,5.5,22.2,5.5Z"/>
  </g>
  <g>
    <path class="st1" d="M67.1,25l7.5,2.3c-.5,2.1-1.3,3.8-2.4,5.2s-2.4,2.5-4,3.2-3.6,1.1-6.1,1.1-5.4-.4-7.3-1.3c-1.9-.9-3.5-2.4-4.9-4.6-1.4-2.2-2.1-5-2.1-8.4s1.2-8.1,3.6-10.5c2.4-2.5,5.9-3.7,10.3-3.7s6.2.7,8.2,2.1,3.5,3.6,4.4,6.5l-7.5,1.7c-.3-.8-.5-1.5-.8-1.8-.5-.7-1.1-1.2-1.7-1.5-.7-.4-1.5-.5-2.3-.5-1.9,0-3.4.8-4.4,2.3-.8,1.2-1.2,3-1.2,5.4s.5,5.2,1.4,6.3c.9,1.1,2.2,1.7,3.9,1.7s2.9-.5,3.7-1.4c.8-.9,1.4-2.2,1.8-4h0Z"/>
    <path class="st1" d="M77.7,8.8h7.7v27.6h-7.7V8.8Z"/>
    <path class="st1" d="M88.6,26.4c0-3,1-5.6,3.1-7.5,2.1-2,4.8-3,8.3-3s7,1.2,9.1,3.5c1.6,1.9,2.5,4.2,2.5,6.9s-1,5.6-3.1,7.6c-2,2-4.9,2.9-8.5,2.9s-5.8-.8-7.8-2.4c-2.4-2-3.7-4.7-3.7-7.9h0ZM96.3,26.4c0,1.8.4,3.1,1.1,4s1.6,1.3,2.7,1.3,2-.4,2.7-1.3c.7-.8,1.1-2.2,1.1-4s-.4-3-1.1-3.9c-.7-.8-1.6-1.3-2.7-1.3s-2,.4-2.8,1.3c-.7.9-1.1,2.2-1.1,3.9h.1Z"/>
    <path class="st1" d="M135.5,36.3h-7.1v-3.2c-1.1,1.3-2.1,2.3-3.2,2.8-1.1.6-2.4.8-4,.8s-3.8-.6-5-1.9c-1.2-1.3-1.8-3.2-1.8-5.8v-12.7h7.7v11c0,1.3.2,2.1.7,2.7s1.1.8,2,.8,1.7-.4,2.2-1.1c.6-.7.9-2,.9-3.8v-9.6h7.7v20h0Z"/>
    <path class="st1" d="M160.4,8.8v27.6h-7.2v-3c-1,1.3-1.9,2.1-2.7,2.5-1.1.6-2.3.9-3.7.9-2.7,0-4.8-1-6.2-3.1-1.4-2.1-2.2-4.6-2.2-7.5s.8-5.8,2.4-7.6c1.6-1.8,3.6-2.6,6-2.6s2.3.2,3.2.6,1.8,1,2.6,1.8v-9.6h7.8ZM152.7,26.3c0-1.6-.3-2.7-1-3.5s-1.5-1.2-2.5-1.2-1.6.4-2.2,1.1-.9,2-.9,3.7.3,2.8.9,3.6c.6.8,1.4,1.1,2.3,1.1s1.8-.4,2.4-1.1c.7-.8,1-2,1-3.7Z"/>
    <path class="st0" d="M169,8.8h9.4l4.9,8.5,4.8-8.5h9.3l-8.6,13.4,9.4,14.2h-9.6l-5.4-8.9-5.4,8.9h-9.5l9.5-14.4-8.6-13.2h-.2Z"/>
  </g>
</svg>