<?xml version="1.0" encoding="UTF-8"?>
<svg id="_레이어_1" xmlns="http://www.w3.org/2000/svg" version="1.1" viewBox="0 0 266.5 45">
  <!-- Generator: Adobe Illustrator 29.2.0, SVG Export Plug-In . SVG Version: 2.1.0 Build 108)  -->
  <defs>
    <style>
      .st0 {
        fill: #595757;
      }

      .st1 {
        fill: #3fa531;
      }
    </style>
  </defs>
  <g>
    <path class="st1" d="M22.1,20c-.9-.2-2-.2-3,.1-1.1.3-2.1.8-2.9,1.5-1.4,1.2-2.3,2.6-2.6,4.4-.2.9,0,2,.3,3.2l10.2-8.4c-.7-.4-1.4-.7-2-.8Z"/>
    <path class="st1" d="M22.8,5.5c-9.4,0-17,7.6-17,17s2.5,10.2,6.5,13.3c-.2-.2-.4-.5-.6-.7-1.8-2.3-2.8-4.9-2.9-7.8,0-3.7,1.4-6.8,4.4-9.3,3-2.5,6.5-3.3,10.2-2.5,2.6.6,5,2.1,7,4.5l.6.8-.8.6-14.1,11.5c1.3,1.2,2.7,1.9,4.3,2.1,1.9.2,3.6-.3,5.2-1.6.8-.6,1.4-1.4,1.9-2.2.5-.8.8-1.7,1-2.5.3-1.4.2-1.7,0-2.6v-.5c0,0,.3-.4.3-.4l2.2-1.8,1-.8.6,1.1c1,2.1.7,3.9.5,5.1v.3c-.3,1.4-.7,2.8-1.5,4.1-.7,1.2-1.7,2.4-3,3.5-1.7,1.4-3.5,2.3-5.3,2.7,9.1-.3,16.5-7.8,16.5-17S32.2,5.5,22.8,5.5Z"/>
  </g>
  <g>
    <path d="M47.5,7.6h15c3.3,0,5.7.8,7.4,2.3,1.6,1.6,2.4,3.8,2.4,6.6s-.9,5.3-2.7,6.9c-1.8,1.7-4.5,2.5-8.1,2.5h-5v10.9h-9.1V7.6ZM56.6,20.1h2.2c1.7,0,3-.3,3.7-.9.7-.6,1.1-1.4,1.1-2.3s-.3-1.7-.9-2.3-1.8-1-3.5-1h-2.6v6.5Z"/>
    <path d="M73.7,15.7h7.6v3.5c.7-1.5,1.5-2.5,2.3-3.1s1.7-.8,2.9-.8,2.5.4,3.9,1.1l-2.5,5.8c-1-.4-1.7-.6-2.3-.6-1.1,0-1.9.4-2.5,1.3-.8,1.2-1.3,3.6-1.3,6.9v7.1h-8.2V15.7Z"/>
    <path d="M91.9,7.6h8.1v5.5h-8.1v-5.5ZM91.9,15.7h8.1v21.2h-8.1V15.7Z"/>
    <path d="M101.2,31l8.1-.8c.3,1,.8,1.6,1.4,2.1.6.4,1.4.6,2.4.6s1.9-.2,2.5-.7c.5-.3.7-.8.7-1.3s-.3-1-.9-1.4c-.4-.2-1.6-.5-3.5-.8-2.8-.5-4.8-.9-5.9-1.4-1.1-.4-2-1.1-2.8-2.1-.8-1-1.1-2.1-1.1-3.4s.4-2.6,1.2-3.6c.8-1,1.9-1.8,3.4-2.3,1.4-.5,3.3-.7,5.7-.7s4.4.2,5.6.6,2.2,1,3,1.8c.8.8,1.5,1.9,2,3.3l-7.7.8c-.2-.7-.5-1.2-1-1.5-.6-.4-1.4-.6-2.3-.6s-1.6.2-2,.5c-.4.3-.6.7-.6,1.2s.3.9.8,1.2c.5.3,1.7.5,3.5.7,2.7.3,4.7.7,6,1.3,1.3.5,2.3,1.3,3,2.3.7,1,1,2.1,1,3.3s-.4,2.4-1.1,3.6c-.7,1.2-1.9,2.1-3.5,2.8-1.6.7-3.8,1-6.5,1s-6.6-.6-8.3-1.7c-1.6-1.1-2.7-2.7-3.2-4.7Z"/>
    <path d="M125,15.7h7.6v3.1c1.1-1.3,2.2-2.2,3.3-2.8s2.5-.8,4-.8,3,.3,4,.9c1,.6,1.8,1.5,2.4,2.7,1.3-1.4,2.4-2.3,3.5-2.8,1.1-.5,2.3-.7,3.9-.7,2.3,0,4,.7,5.3,2,1.3,1.4,1.9,3.5,1.9,6.3v13.3h-8.1v-12.1c0-1-.2-1.7-.6-2.1-.5-.7-1.2-1.1-2-1.1s-1.7.3-2.3,1c-.6.7-.9,1.8-.9,3.3v10.9h-8.1v-11.7c0-.9,0-1.6-.2-1.9-.2-.5-.5-1-.9-1.3-.4-.3-.9-.5-1.5-.5-.9,0-1.7.4-2.3,1.1-.6.7-.9,1.9-.9,3.5v10.8h-8.1V15.7Z"/>
  </g>
  <g>
    <path class="st0" d="M167.3,33.4l3.2-3.9c2,1.9,4.6,3.1,7.1,3.1s4.5-1.2,4.5-3.2-1.7-2.7-4.2-3.8l-3.7-1.6c-2.8-1.2-5.7-3.4-5.7-7.5s4-8.1,9.7-8.1,6.5,1.3,8.8,3.6l-2.8,3.5c-1.8-1.5-3.6-2.3-5.9-2.3s-4,1.1-4,2.9,2,2.7,4.4,3.7l3.7,1.5c3.4,1.4,5.6,3.5,5.6,7.6s-3.8,8.5-10.3,8.5-7.5-1.5-10.2-4.1Z"/>
    <path class="st0" d="M187.9,33.4l3.2-3.9c2,1.9,4.6,3.1,7.1,3.1s4.5-1.2,4.5-3.2-1.7-2.7-4.2-3.8l-3.7-1.6c-2.8-1.2-5.7-3.4-5.7-7.5s4-8.1,9.7-8.1,6.5,1.3,8.8,3.6l-2.8,3.5c-1.8-1.5-3.6-2.3-5.9-2.3s-4,1.1-4,2.9,2,2.7,4.4,3.7l3.7,1.5c3.4,1.4,5.6,3.5,5.6,7.6s-3.8,8.5-10.3,8.5-7.5-1.5-10.2-4.1Z"/>
    <path class="st0" d="M211,9h5.6v23.3h11.3v4.7h-16.9V9Z"/>
    <path class="st0" d="M233.1,18h2.5l3.1,10.3c.7,2.2,1.1,4,1.8,6.3h.1c.7-2.2,1.2-4,1.8-6.3l3.1-10.3h2.4l-6,19h-2.8l-6.1-19Z"/>
    <path class="st0" d="M257.9,31.2h-7l-1.8,5.8h-2.4l6.5-19h2.7l6.5,19h-2.5l-1.8-5.8ZM257.3,29.2l-.9-2.9c-.7-2.2-1.3-4.2-1.9-6.4h-.1c-.6,2.2-1.2,4.3-1.9,6.4l-.9,2.9h5.8Z"/>
  </g>
</svg>