<?xml version="1.0" encoding="UTF-8"?>
<svg id="_레이어_1" data-name="레이어_1" xmlns="http://www.w3.org/2000/svg" version="1.1" viewBox="0 0 340 45">
  <!-- Generator: Adobe Illustrator 29.0.0, SVG Export Plug-In . SVG Version: 2.1.0 Build 186)  -->
  <defs>
    <style>
      .st0, .st1 {
        fill: #fff;
      }

      .st1 {
        opacity: .7;
      }
    </style>
  </defs>
  <path class="st1" d="M23.91,20.02c-.95-.19-1.98-.16-3.06.13-1.09.28-2.09.78-2.96,1.5-1.45,1.19-2.29,2.63-2.58,4.4-.15.95-.04,2.02.33,3.21l10.28-8.41c-.7-.4-1.37-.69-2-.83Z"/>
  <path class="st1" d="M94.52,22.61l-7.47-.79c.28-1.3.69-2.33,1.22-3.08s1.3-1.4,2.29-1.95c.72-.4,1.7-.7,2.96-.92,1.25-.22,2.61-.33,4.07-.33,2.34,0,4.22.13,5.64.39,1.42.26,2.61.81,3.55,1.64.66.58,1.19,1.39,1.57,2.45.38,1.06.58,2.06.58,3.02v9c0,.96.06,1.71.18,2.26.12.54.39,1.24.8,2.08h-7.33c-.3-.52-.49-.92-.58-1.2s-.18-.71-.27-1.3c-1.02.98-2.04,1.69-3.05,2.11-1.38.56-2.99.84-4.82.84-2.43,0-4.28-.56-5.54-1.69-1.26-1.12-1.89-2.51-1.89-4.16,0-1.55.45-2.82,1.36-3.82.91-1,2.58-1.74,5.03-2.23,2.93-.59,4.83-1,5.7-1.24.87-.24,1.79-.55,2.76-.93,0-.96-.2-1.63-.6-2.02-.4-.38-1.09-.57-2.09-.57-1.28,0-2.24.2-2.88.61-.5.32-.9.92-1.21,1.8ZM101.3,26.72c-1.08.39-2.2.72-3.36,1.02-1.59.42-2.59.84-3.01,1.25-.43.42-.65.9-.65,1.44,0,.61.22,1.12.64,1.51.43.39,1.06.58,1.89.58s1.68-.21,2.43-.63c.75-.42,1.28-.94,1.59-1.55.31-.61.47-1.4.47-2.37v-1.25Z"/>
  <path class="st1" d="M169.5,28.14h-15.66c.14,1.25.48,2.19,1.02,2.8.76.88,1.74,1.33,2.96,1.33.77,0,1.5-.19,2.19-.58.42-.24.88-.67,1.36-1.29l7.7.71c-1.18,2.05-2.6,3.52-4.26,4.4-1.66.89-4.05,1.33-7.16,1.33-2.7,0-4.82-.38-6.37-1.14-1.55-.76-2.83-1.97-3.85-3.63-1.02-1.66-1.53-3.61-1.53-5.85,0-3.19,1.02-5.77,3.06-7.74,2.04-1.97,4.86-2.96,8.45-2.96,2.92,0,5.22.44,6.91,1.33,1.69.88,2.97,2.16,3.86,3.84.88,1.68,1.33,3.86,1.33,6.55v.88ZM161.55,24.4c-.15-1.51-.56-2.59-1.22-3.24-.66-.65-1.53-.98-2.6-.98-1.24,0-2.23.49-2.97,1.48-.47.61-.77,1.53-.9,2.75h7.7Z"/>
  <path class="st1" d="M171.59,16.01h7.31v3.34c.7-1.45,1.43-2.44,2.18-2.99.75-.54,1.67-.82,2.77-.82s2.41.36,3.78,1.07l-2.42,5.57c-.92-.38-1.65-.57-2.19-.57-1.02,0-1.82.42-2.38,1.27-.81,1.19-1.21,3.42-1.21,6.68v6.83h-7.85v-20.39Z"/>
  <path class="st1" d="M24.68,5.42c-9.44,0-17.09,7.66-17.09,17.09,0,5.43,2.54,10.27,6.49,13.4-.23-.23-.44-.47-.65-.73-1.85-2.26-2.81-4.88-2.87-7.79-.07-3.73,1.4-6.86,4.38-9.3,3.06-2.5,6.51-3.35,10.24-2.52,2.65.58,5.01,2.09,7.02,4.5l.64.77-.77.64-14.12,11.55c1.28,1.23,2.72,1.93,4.36,2.12,1.93.23,3.63-.29,5.19-1.56.75-.61,1.39-1.36,1.89-2.2.5-.84.83-1.67.97-2.49.25-1.39.21-1.7.08-2.64l-.08-.55.43-.35,2.21-1.83.97-.81.56,1.14c1.01,2.1.74,3.87.54,5.16l-.05.31c-.21,1.45-.69,2.83-1.42,4.08-.73,1.26-1.75,2.43-3.06,3.51-1.71,1.39-3.49,2.29-5.32,2.68,9.19-.28,16.55-7.82,16.55-17.07S34.11,5.42,24.68,5.42Z"/>
  <path class="st1" d="M47.95,8.26h8.26l2.97,15.75,4.35-15.75h8.23l4.36,15.73,2.98-15.73h8.22l-6.2,28.14h-8.53l-4.94-17.72-4.92,17.72h-8.53l-6.26-28.14Z"/>
  <path class="st1" d="M112.31,8.26h7.83v28.14h-7.83V8.26Z"/>
  <path class="st1" d="M123.56,8.26h7.98v14.52l5.84-6.77h9.62l-7.31,7.14,7.74,13.24h-8.8l-4.13-8.17-2.94,2.87v5.3h-7.98V8.26Z"/>
  <g>
    <path class="st0" d="M192.43,33.06l3.25-3.72c2.03,1.79,4.71,2.99,7.2,2.99,2.95,0,4.52-1.2,4.52-3.1,0-2-1.72-2.62-4.25-3.65l-3.79-1.53c-2.87-1.13-5.74-3.32-5.74-7.25,0-4.41,4.06-7.8,9.8-7.8,3.29,0,6.58,1.24,8.88,3.46l-2.87,3.39c-1.8-1.42-3.67-2.22-6.01-2.22-2.49,0-4.1,1.06-4.1,2.84,0,1.93,2.03,2.62,4.44,3.54l3.71,1.49c3.45,1.35,5.7,3.43,5.7,7.33,0,4.41-3.87,8.17-10.41,8.17-3.79,0-7.58-1.42-10.34-3.94Z"/>
    <path class="st0" d="M213.1,9.51h5.78l2.26,13.16c.42,2.84.88,5.72,1.3,8.6h.15c.57-2.88,1.19-5.8,1.8-8.6l3.29-13.16h4.82l3.29,13.16c.61,2.77,1.19,5.69,1.8,8.6h.19c.42-2.92.84-5.8,1.26-8.6l2.22-13.16h5.4l-5.25,26.98h-7.04l-3.18-13.34c-.46-2.11-.88-4.19-1.23-6.23h-.15c-.38,2.04-.77,4.12-1.23,6.23l-3.1,13.34h-6.93l-5.47-26.98Z"/>
    <path class="st0" d="M247.09,23.11c0-8.89,6.05-14.11,13.59-14.11,4.1,0,6.93,1.68,8.77,3.46l-3.02,3.43c-1.38-1.28-2.99-2.26-5.55-2.26-4.71,0-8,3.5-8,9.3s2.83,9.4,8.38,9.4c1.38,0,2.76-.36,3.56-1.02v-5.32h-5.02v-4.41h10.07v12.18c-1.92,1.79-5.25,3.24-9.19,3.24-7.73,0-13.59-4.88-13.59-13.89Z"/>
    <path class="st1" d="M276.36,10.25h2.42l4.95,15.08c1.02,3.17,1.74,5.62,2.83,8.78h.15c1.13-3.17,1.85-5.62,2.91-8.78l4.91-15.08h2.31l-8.96,26.24h-2.5l-9.03-26.24Z"/>
    <path class="st1" d="M298.96,34.65h6.24V13.31h-4.8v-1.4c2.23-.36,3.93-.94,5.25-1.66h1.78v24.4h5.75v1.84h-14.21v-1.84Z"/>
    <path class="st1" d="M316.2,23.28c0-9.11,3.1-13.5,8.13-13.5s8.09,4.39,8.09,13.5-3.1,13.68-8.09,13.68-8.13-4.46-8.13-13.68ZM330.22,23.28c0-7.81-2.34-11.73-5.9-11.73s-5.93,3.92-5.93,11.73,2.34,11.91,5.93,11.91,5.9-3.96,5.9-11.91Z"/>
  </g>
</svg>