<?xml version="1.0" encoding="UTF-8"?>
<svg id="_레이어_1" data-name="레이어_1" xmlns="http://www.w3.org/2000/svg" version="1.1" xmlns:xlink="http://www.w3.org/1999/xlink" viewBox="0 0 340.2 56.7">
  <!-- Generator: Adobe Illustrator 29.2.0, SVG Export Plug-In . SVG Version: 2.1.0 Build 108)  -->
  <defs>
    <style>
      .st0 {
        fill: url(#linear-gradient1);
      }

      .st1 {
        fill: #005a8a;
      }

      .st2 {
        fill: none;
      }

      .st3 {
        fill: url(#linear-gradient);
      }

      .st4 {
        clip-path: url(#clippath);
      }
    </style>
    <clipPath id="clippath">
      <path class="st2" d="M125.6,5.1h-23.3l-5.8,4.3-4.3-4.3h-23.3l-9.8,7.3-5.8,32.5,7.2,7.3h23.3l5.8-4.3,4.3,4.3h23.3l9.8-7.3,5.8-32.5-7.2-7.3ZM85.8,17.2l-4.1,22.9c0,.3-.4.6-.7.6h-13.6c-.3,0-.5-.3-.5-.6l4.1-22.9c0-.3.4-.6.7-.6h13.6c.3,0,.5.3.5.6ZM119.2,17.2l-4.1,22.9c0,.3-.4.6-.7.6h-13.6c-.3,0-.5-.3-.5-.6l4.1-22.9c0-.3.4-.6.7-.6h13.6c.3,0,.5.3.5.6Z"/>
    </clipPath>
    <linearGradient id="linear-gradient" x1="40.3" y1="58.4" x2="113.4" y2="27.5" gradientUnits="userSpaceOnUse">
      <stop offset="0" stop-color="#005975"/>
      <stop offset="1" stop-color="#4bbfef"/>
    </linearGradient>
    <linearGradient id="linear-gradient1" x1="118" y1="12.2" x2="53.8" y2="51" gradientUnits="userSpaceOnUse">
      <stop offset="0" stop-color="#c3d600"/>
      <stop offset=".3" stop-color="#94c536"/>
      <stop offset="1" stop-color="#005b77"/>
    </linearGradient>
  </defs>
  <g>
    <polygon class="st1" points="255.7 5.8 251.7 28.1 240.1 5.8 228.7 5.8 220.6 51.4 232.6 51.4 236.6 29 248.2 51.4 259.6 51.4 267.7 5.8 255.7 5.8"/>
    <path class="st1" d="M36.7,38.7l-22.3-13.1,2.3-13.2,9.6-6.7h27.4l-2,11.4h-22.8c-.8,0-1,.9-.2,1.2l22.4,12.8-2.6,14.7-8.1,5.6H9l2-11.4h25.2c1,0,1.3-.7.4-1.3Z"/>
    <path class="st1" d="M158.1,38.7l-22.3-13.1,2.3-13.2,9.6-6.7h27.4l-2,11.4h-22.8c-.8,0-1,.9-.2,1.2l22.4,12.8-2.6,14.7-8.1,5.6h-31.4l2-11.4h25.2c1,0,1.3-.7.4-1.3Z"/>
    <path class="st1" d="M204.2,51.5h13.3l-7.6-45.7h-15.7l-23.8,45.7h13.3l4-8.1h15.3l1.1,8.1ZM201.5,32.5h-8.3l6.5-13.1,1.8,13.1Z"/>
    <path class="st1" d="M125.6,5.1h-23.3l-5.8,4.3-4.3-4.3h-23.3l-9.8,7.3-5.8,32.5,7.2,7.3h23.3l5.8-4.3,4.3,4.3h23.3l9.8-7.3,5.8-32.5-7.2-7.3ZM85.8,17.2l-4.1,22.9c0,.3-.4.6-.7.6h-13.6c-.3,0-.5-.3-.5-.6l4.1-22.9c0-.3.4-.6.7-.6h13.6c.3,0,.5.3.5.6ZM119.2,17.2l-4.1,22.9c0,.3-.4.6-.7.6h-13.6c-.3,0-.5-.3-.5-.6l4.1-22.9c0-.3.4-.6.7-.6h13.6c.3,0,.5.3.5.6Z"/>
    <g class="st4">
      <polygon class="st3" points="133.7 10.9 55.5 52.1 58.7 52.5 132.8 27.3 133.7 10.9"/>
      <polygon class="st0" points="57.7 50.9 56.1 48.9 122 .4 135.1 11.2 57.7 50.9"/>
    </g>
  </g>
  <g>
    <g>
      <path class="st1" d="M282.2,26.8l-4.3,24.6h-5.7l4.3-24.6h5.7Z"/>
      <path class="st1" d="M294.6,26.8s6.6,14.3,6.8,16.1c.1-1.9.6-4.4.8-6.1l1.7-9.9h5.4l-4.3,24.6h-5.9s-6.6-15.2-6.8-16.7c-.2,2-.7,4.3-1,6.4l-1.8,10.4h-5.5l4.3-24.6h6.3Z"/>
    </g>
    <path class="st1" d="M333.9,26.8l-.7,4.3h-7.3l-3.6,20.4h-5.7l3.6-20.4h-7.2l.8-4.3h20.2Z"/>
  </g>
</svg>